<?xml version="1.0" encoding="UTF-8" standalone="no"?>
<svg
   width="636"
   height="200"
   fill="none"
   version="1.1"
   id="svg4"
   sodipodi:docname="cxm-logo.svg"
   inkscape:version="1.3.2 (091e20ef0f, 2023-11-25)"
   xmlns:inkscape="http://www.inkscape.org/namespaces/inkscape"
   xmlns:sodipodi="http://sodipodi.sourceforge.net/DTD/sodipodi-0.dtd"
   xmlns="http://www.w3.org/2000/svg"
   xmlns:svg="http://www.w3.org/2000/svg">
  <sodipodi:namedview
     id="namedview4"
     pagecolor="#1e1e21"
     bordercolor="#000000"
     borderopacity="0.25"
     inkscape:showpageshadow="2"
     inkscape:pageopacity="0.0"
     inkscape:pagecheckerboard="0"
     inkscape:deskcolor="#0a1019"
     inkscape:zoom="1.0379471"
     inkscape:cx="329.97827"
     inkscape:cy="19.268804"
     inkscape:window-width="1515"
     inkscape:window-height="877"
     inkscape:window-x="0"
     inkscape:window-y="0"
     inkscape:window-maximized="1"
     inkscape:current-layer="svg4" />
  <g
     clip-path="url(#a)"
     id="g3"
     transform="translate(0,6.6591767)">
    <path
       fill="#ffaf5b"
       fill-rule="evenodd"
       d="m 32.854,27.823 c -0.899,0.87 -0.918,2.606 -0.957,6.078 l -0.293,26.26 c -0.039,3.506 -0.058,5.26 0.829,6.151 a 3,3 0 0 0 1.36,0.785 c 1.215,0.321 2.724,-0.573 5.74,-2.363 l 26.966,-16 c 0.948,-0.562 1.421,-0.843 1.527,-1.236 a 0.999,0.999 0 0 0 0.003,-0.508 c -0.1,-0.394 -0.57,-0.681 -1.511,-1.255 L 39.882,29.48 c -2.964,-1.81 -4.446,-2.714 -5.661,-2.414 a 3,3 0 0 0 -1.367,0.758 z m 78.254,87.681 C 112,114.623 112,112.881 112,109.396 V 86.54 c 0,-5.79 0,-8.684 -1.032,-11.221 a 14.003,14.003 0 0 0 -1.772,-3.13 c -1.644,-2.19 -4.127,-3.68 -9.091,-6.658 L 72,48.668 v 46 l 32.049,19.23 c 2.988,1.793 4.483,2.689 5.697,2.377 a 3.002,3.002 0 0 0 1.362,-0.771 z"
       clip-rule="evenodd"
       id="path1" />
    <path
       fill="#c04788"
       fill-rule="evenodd"
       d="m 112,58.797 c 0,5.789 0,8.684 -1.032,11.22 -0.38,0.933 -0.859,1.822 -1.428,2.651 a 13.746,13.746 0 0 0 -0.344,-0.479 c -1.644,-2.19 -4.127,-3.68 -9.091,-6.658 L 72,48.668 104.049,29.438 c 2.988,-1.792 4.483,-2.689 5.697,-2.377 0.514,0.132 0.984,0.398 1.362,0.771 C 112,28.713 112,30.456 112,33.941 Z M 33.032,75.319 C 32,77.856 32,80.751 32,86.539 v 22.857 c 0,3.485 0,5.227 0.892,6.108 a 3,3 0 0 0 1.362,0.771 c 1.214,0.312 2.709,-0.584 5.697,-2.377 L 72,94.668 v -46 L 43.895,65.531 C 38.93,68.51 36.448,70 34.805,72.19 a 13.999,13.999 0 0 0 -1.773,3.13 z"
       clip-rule="evenodd"
       id="path2" />
    <path
       fill="#c04788"
       d="m 166,96.938 c -4.917,0 -9.146,-1.042 -12.688,-3.126 -3.52,-2.104 -6.229,-5.02 -8.124,-8.75 -1.876,-3.729 -2.813,-8.02 -2.813,-12.874 0,-4.917 0.948,-9.23 2.844,-12.938 1.916,-3.73 4.635,-6.635 8.156,-8.719 3.521,-2.104 7.708,-3.156 12.563,-3.156 4.187,0 7.854,0.76 11,2.281 3.145,1.521 5.635,3.657 7.468,6.407 1.659,2.487 2.644,5.366 2.955,8.638 a 0.966,0.966 0 0 1 -0.975,1.049 h -10.648 c -0.496,0 -0.912,-0.365 -1.017,-0.85 -0.436,-2.005 -1.322,-3.65 -2.659,-4.931 -1.5,-1.48 -3.468,-2.219 -5.906,-2.219 -2.062,0 -3.864,0.563 -5.406,1.688 -1.521,1.104 -2.708,2.718 -3.562,4.843 -0.855,2.125 -1.282,4.698 -1.282,7.719 0,3.063 0.417,5.667 1.25,7.813 0.854,2.145 2.052,3.78 3.594,4.906 1.542,1.125 3.344,1.687 5.406,1.687 1.521,0 2.886,-0.312 4.094,-0.937 1.229,-0.625 2.24,-1.531 3.031,-2.719 0.673,-1 1.153,-2.166 1.44,-3.495 0.105,-0.484 0.521,-0.849 1.017,-0.849 h 10.641 a 0.967,0.967 0 0 1 0.975,1.055 c -0.326,3.235 -1.299,6.112 -2.916,8.633 -1.771,2.77 -4.219,4.937 -7.344,6.5 -3.125,1.562 -6.823,2.344 -11.094,2.344 z m 47.688,0 c -4.854,0 -9.052,-1.032 -12.593,-3.094 -3.521,-2.084 -6.24,-4.98 -8.157,-8.688 -1.916,-3.729 -2.875,-8.052 -2.875,-12.969 0,-4.958 0.959,-9.291 2.875,-13 1.917,-3.729 4.636,-6.624 8.157,-8.687 3.541,-2.083 7.739,-3.125 12.593,-3.125 4.855,0 9.042,1.042 12.563,3.125 3.542,2.063 6.271,4.958 8.187,8.688 1.917,3.708 2.875,8.041 2.875,13 0,4.916 -0.958,9.24 -2.875,12.968 -1.916,3.709 -4.645,6.604 -8.187,8.688 -3.521,2.062 -7.708,3.094 -12.563,3.094 z m 0.063,-10.313 c 2.208,0 4.052,-0.625 5.531,-1.875 1.479,-1.27 2.594,-3 3.344,-5.188 0.771,-2.187 1.156,-4.677 1.156,-7.468 0,-2.792 -0.385,-5.281 -1.156,-7.469 -0.75,-2.188 -1.865,-3.917 -3.344,-5.188 -1.479,-1.27 -3.323,-1.906 -5.531,-1.906 -2.229,0 -4.104,0.636 -5.625,1.907 -1.5,1.27 -2.635,3 -3.406,5.187 -0.75,2.188 -1.125,4.677 -1.125,7.469 0,2.791 0.375,5.281 1.125,7.469 0.771,2.187 1.906,3.916 3.406,5.187 1.521,1.25 3.396,1.875 5.625,1.875 z m 46.386,10.156 c -3.646,0 -6.948,-0.937 -9.906,-2.812 -2.938,-1.896 -5.271,-4.677 -7,-8.344 -1.708,-3.688 -2.563,-8.208 -2.563,-13.563 0,-5.5 0.886,-10.072 2.657,-13.718 1.771,-3.667 4.125,-6.407 7.062,-8.219 2.959,-1.833 6.198,-2.75 9.719,-2.75 2.687,0 4.927,0.458 6.719,1.375 1.812,0.896 3.271,2.02 4.375,3.375 1.125,1.333 1.979,2.646 2.562,3.938 h 0.406 V 33 a 1,1 0 0 1 1,-1 h 11.282 a 1,1 0 0 1 1,1 v 62 a 1,1 0 0 1 -1,1 h -11.125 a 1,1 0 0 1 -1,-1 v -6.688 h -0.563 c -0.625,1.334 -1.51,2.657 -2.656,3.97 -1.125,1.29 -2.594,2.364 -4.406,3.218 -1.792,0.854 -3.979,1.281 -6.563,1.281 z m 4.219,-10.594 c 2.146,0 3.958,-0.583 5.437,-1.75 1.5,-1.187 2.646,-2.843 3.438,-4.968 0.812,-2.125 1.219,-4.615 1.219,-7.469 0,-2.854 -0.396,-5.333 -1.188,-7.438 -0.791,-2.104 -1.937,-3.729 -3.437,-4.874 -1.5,-1.146 -3.323,-1.72 -5.469,-1.72 -2.188,0 -4.031,0.594 -5.531,1.782 -1.5,1.188 -2.636,2.833 -3.407,4.938 -0.77,2.104 -1.156,4.541 -1.156,7.312 0,2.792 0.386,5.26 1.156,7.406 0.792,2.125 1.928,3.792 3.407,5 1.5,1.188 3.343,1.781 5.531,1.781 z m 50.634,10.751 c -4.937,0 -9.187,-1 -12.75,-3 -3.542,-2.021 -6.271,-4.876 -8.187,-8.563 -1.917,-3.708 -2.875,-8.094 -2.875,-13.156 0,-4.938 0.958,-9.271 2.875,-13 1.916,-3.73 4.614,-6.636 8.093,-8.719 3.5,-2.083 7.604,-3.125 12.313,-3.125 3.166,0 6.114,0.51 8.844,1.531 2.75,1 5.145,2.51 7.187,4.532 2.063,2.02 3.667,4.562 4.813,7.624 1.145,3.042 1.718,6.605 1.718,10.688 v 2.656 a 1,1 0 0 1 -1,1 H 296.49 v -8.25 h 28 c 0,-1.916 -0.417,-3.614 -1.25,-5.094 a 8.953,8.953 0 0 0 -3.469,-3.468 c -1.458,-0.854 -3.156,-1.282 -5.093,-1.282 -2.021,0 -3.813,0.47 -5.375,1.407 a 9.857,9.857 0 0 0 -3.625,3.718 c -0.875,1.542 -1.323,3.26 -1.344,5.157 v 7.844 c 0,2.374 0.437,4.427 1.312,6.156 0.896,1.729 2.157,3.062 3.782,4 1.625,0.937 3.552,1.406 5.781,1.406 1.479,0 2.833,-0.208 4.062,-0.625 1.229,-0.417 2.282,-1.042 3.157,-1.875 a 7.993,7.993 0 0 0 1.71,-2.382 c 0.188,-0.397 0.589,-0.66 1.028,-0.632 l 10.423,0.688 c 0.607,0.04 1.041,0.61 0.878,1.197 A 16.68,16.68 0 0 1 332.896,90 c -1.916,2.188 -4.396,3.896 -7.437,5.125 -3.021,1.208 -6.511,1.813 -10.469,1.813 z M 389.381,97 c -4.625,0 -8.614,-1.02 -11.968,-3.063 -3.334,-2.062 -5.907,-4.937 -7.719,-8.624 -1.792,-3.709 -2.688,-8.021 -2.688,-12.938 0,-4.917 0.896,-9.25 2.688,-13 1.812,-3.77 4.333,-6.708 7.562,-8.813 3.25,-2.124 7.042,-3.187 11.375,-3.187 2.5,0 4.969,0.417 7.407,1.25 2.437,0.833 4.656,2.188 6.656,4.063 2,1.854 3.594,4.312 4.781,7.374 1.188,3.063 1.781,6.834 1.781,11.313 V 73.5 a 1,1 0 0 1 -1,1 h -36 v -6.375 h 29.5 c 0,-2.708 -0.541,-5.125 -1.625,-7.25 -1.062,-2.125 -2.583,-3.802 -4.562,-5.031 C 393.61,54.614 391.298,54 388.631,54 c -2.937,0 -5.479,0.73 -7.625,2.188 a 14.39,14.39 0 0 0 -4.906,5.624 c -1.146,2.313 -1.719,4.792 -1.719,7.438 v 4.25 c 0,3.625 0.625,6.698 1.875,9.219 1.271,2.5 3.032,4.406 5.282,5.719 2.25,1.291 4.864,1.937 7.843,1.937 1.938,0 3.688,-0.27 5.25,-0.813 1.584,-0.562 2.948,-1.395 4.094,-2.5 0.946,-0.928 1.714,-2.041 2.305,-3.339 0.215,-0.472 0.735,-0.74 1.235,-0.6 l 5.252,1.474 c 0.542,0.152 0.854,0.723 0.654,1.25 a 15.785,15.785 0 0 1 -3.446,5.403 c -1.771,1.813 -3.958,3.23 -6.562,4.25 -2.605,1 -5.532,1.5 -8.782,1.5 z m 28.981,-49 c 0.355,0 0.683,0.188 0.863,0.494 l 11.21,19.131 11.21,-19.13 C 441.825,48.188 442.153,48 442.508,48 h 7.927 l -15.5,24 15.5,24 h -7.942 a 1,1 0 0 1 -0.851,-0.475 l -11.207,-18.15 -11.207,18.15 A 1,1 0 0 1 418.377,96 h -7.942 l 15.25,-24 -15.25,-24 z m 38.756,66 a 1,1 0 0 1 -1,-1 V 49 a 1,1 0 0 1 1,-1 h 5.125 a 1,1 0 0 1 1,1 v 6.625 h 0.875 c 0.542,-0.833 1.292,-1.896 2.25,-3.188 0.98,-1.312 2.375,-2.479 4.188,-3.5 1.833,-1.041 4.312,-1.562 7.437,-1.562 4.042,0 7.605,1.01 10.688,3.031 3.083,2.021 5.49,4.886 7.219,8.594 1.729,3.708 2.593,8.083 2.593,13.125 0,5.083 -0.864,9.49 -2.593,13.219 -1.729,3.708 -4.125,6.583 -7.188,8.625 -3.062,2.02 -6.594,3.031 -10.594,3.031 -3.083,0 -5.552,-0.51 -7.406,-1.531 -1.854,-1.042 -3.281,-2.219 -4.281,-3.531 -1,-1.334 -1.771,-2.438 -2.313,-3.313 h -0.625 V 113 a 1,1 0 0 1 -1,1 z m 6.25,-42 c 0,3.625 0.532,6.823 1.594,9.594 1.063,2.75 2.615,4.906 4.656,6.469 2.042,1.541 4.542,2.312 7.5,2.312 3.084,0 5.657,-0.813 7.719,-2.438 2.084,-1.645 3.646,-3.854 4.688,-6.624 1.062,-2.792 1.593,-5.896 1.593,-9.313 0,-3.375 -0.52,-6.417 -1.562,-9.125 -1.021,-2.73 -2.573,-4.885 -4.656,-6.469 C 482.837,54.802 480.243,54 477.118,54 c -3,0 -5.52,0.76 -7.562,2.281 -2.042,1.5 -3.583,3.604 -4.625,6.313 -1.042,2.687 -1.563,5.823 -1.563,9.406 z m 62.98,25 c -4.625,0 -8.614,-1.02 -11.968,-3.063 -3.334,-2.062 -5.907,-4.937 -7.719,-8.624 -1.792,-3.709 -2.688,-8.021 -2.688,-12.938 0,-4.917 0.896,-9.25 2.688,-13 1.812,-3.77 4.333,-6.708 7.562,-8.813 3.25,-2.124 7.042,-3.187 11.375,-3.187 2.5,0 4.969,0.417 7.407,1.25 2.437,0.833 4.656,2.188 6.656,4.063 2,1.854 3.594,4.312 4.781,7.374 1.188,3.063 1.781,6.834 1.781,11.313 V 73.5 a 1,1 0 0 1 -1,1 h -36 v -6.375 h 29.5 c 0,-2.708 -0.541,-5.125 -1.625,-7.25 -1.062,-2.125 -2.583,-3.802 -4.562,-5.031 -1.958,-1.23 -4.271,-1.844 -6.938,-1.844 -2.937,0 -5.479,0.73 -7.625,2.188 a 14.39,14.39 0 0 0 -4.906,5.624 c -1.146,2.313 -1.719,4.792 -1.719,7.438 v 4.25 c 0,3.625 0.625,6.698 1.875,9.219 1.271,2.5 3.032,4.406 5.282,5.719 2.25,1.291 4.864,1.937 7.843,1.937 1.938,0 3.688,-0.27 5.25,-0.813 1.584,-0.562 2.948,-1.395 4.094,-2.5 0.946,-0.928 1.714,-2.041 2.305,-3.339 0.215,-0.472 0.736,-0.74 1.236,-0.6 l 5.251,1.474 c 0.542,0.152 0.855,0.723 0.655,1.25 a 15.787,15.787 0 0 1 -3.447,5.403 c -1.771,1.813 -3.958,3.23 -6.562,4.25 -2.604,1 -5.532,1.5 -8.782,1.5 z m 27.694,-1 a 1,1 0 0 1 -1,-1 V 49 a 1,1 0 0 1 1,-1 h 5.125 a 1,1 0 0 1 1,1 v 6.25 h 0.5 c 0.875,-2.375 2.459,-4.302 4.75,-5.781 2.292,-1.48 4.875,-2.219 7.75,-2.219 a 81.78,81.78 0 0 1 2.972,0.064 0.954,0.954 0 0 1 0.903,0.966 v 5.314 c 0,0.65 -0.618,1.159 -1.262,1.065 l -0.457,-0.065 a 16.916,16.916 0 0 0 -2.781,-0.219 c -2.333,0 -4.416,0.49 -6.25,1.469 -1.812,0.958 -3.25,2.291 -4.312,4 -1.042,1.687 -1.563,3.614 -1.563,5.781 V 95 a 1,1 0 0 1 -1,1 z m 51.177,-48 a 1,1 0 0 1 1,1 v 4.25 a 1,1 0 0 1 -1,1 h -22.875 a 1,1 0 0 1 -1,-1 V 49 a 1,1 0 0 1 1,-1 z M 588.594,37.5 a 1,1 0 0 1 1,-1 h 5.375 a 1,1 0 0 1 1,1 v 44.75 c 0,2.083 0.302,3.646 0.907,4.688 0.625,1.02 1.416,1.708 2.375,2.062 0.979,0.333 2.01,0.5 3.093,0.5 0.813,0 1.48,-0.042 2,-0.125 l 0.294,-0.059 a 1,1 0 0 1 1.172,0.76 l 1.092,4.823 c 0.11,0.488 -0.157,0.982 -0.639,1.114 -0.365,0.1 -0.786,0.2 -1.262,0.3 -0.896,0.208 -2.032,0.312 -3.407,0.312 -2.083,0 -4.125,-0.448 -6.125,-1.344 -1.979,-0.896 -3.625,-2.26 -4.937,-4.094 -1.292,-1.833 -1.938,-4.145 -1.938,-6.937 z"
       id="path3" />
  </g>
  <defs
     id="defs4">
    <clipPath
       id="a">
      <path
         fill="#ffffff"
         d="M 0,0 H 636 V 144 H 0 Z"
         id="path4" />
    </clipPath>
  </defs>
  <path
     d="m 228.13277,79.827638 q 0,0.140213 -0.0779,0.373901 -0.0623,0.218109 -0.17137,0.482955 -0.10905,0.249267 -0.26484,0.514114 -0.14022,0.264846 -0.28043,0.498534 -0.24927,0.38948 -0.6699,0.903594 -0.42064,0.514113 -0.93476,1.074964 -0.51411,0.560852 -1.09054,1.121703 -0.57643,0.560851 -1.13728,1.043806 -0.4518,0.373901 -1.05939,0.825698 -0.60759,0.451797 -1.29307,0.841277 -0.68549,0.38948 -1.40213,0.654326 -0.70106,0.249267 -1.35539,0.249267 -0.60759,0 -1.18402,-0.233688 -0.56085,-0.249267 -1.05938,-0.919173 -0.48296,-0.669905 -0.85686,-1.869504 -0.3739,-1.199598 -0.59201,-3.115839 -0.0156,-0.186951 -0.0467,-0.576431 -0.0156,-0.405059 -0.0467,-0.794539 -0.0156,-0.405059 -0.0467,-0.701064 -0.0312,-0.296005 -0.0623,-0.296005 -0.12463,0 -0.42064,0.373901 -0.28042,0.373901 -0.68548,0.997069 -0.38948,0.607589 -0.85686,1.417707 -0.46737,0.794539 -0.96591,1.651395 -0.62317,1.090544 -1.18402,1.962979 -0.54527,0.856856 -1.0438,1.448866 -0.48296,0.57643 -0.95034,0.888014 -0.45179,0.311584 -0.91917,0.311584 -0.71664,0 -1.16844,-0.264846 -0.4518,-0.280426 -0.71664,-0.841277 -0.26485,-0.57643 -0.3739,-1.464445 -0.10906,-0.903593 -0.14022,-2.13435 -0.0467,-2.056454 -0.14021,-3.209315 -0.0779,-1.152861 -0.23369,-1.152861 -0.18695,0 -0.62316,0.482955 -0.43622,0.482955 -1.04381,1.324232 -0.59201,0.841277 -1.30865,1.978558 -0.70107,1.137282 -1.44887,2.445935 -0.18695,0.342742 -0.4518,0.794539 -0.26484,0.451797 -0.54527,0.919173 -0.28042,0.467376 -0.56085,0.903593 -0.26484,0.436218 -0.48295,0.747802 -0.28043,0.405059 -0.68549,0.623168 -0.40506,0.202529 -0.85685,0.202529 -0.63875,0 -1.09055,-0.264846 -0.4518,-0.280426 -0.73222,-0.747802 -0.28043,-0.467376 -0.42064,-1.106123 -0.12463,-0.638747 -0.12463,-1.35539 0,-0.638747 0.0312,-1.152861 0.0311,-0.514113 0.0935,-1.028227 0.0623,-0.529693 0.14021,-1.106123 0.0935,-0.576431 0.20253,-1.324232 0.0935,-0.654326 0.14022,-1.37097 0.0467,-0.732222 0.0935,-1.417707 0.0467,-0.701064 0.10906,-1.293073 0.0623,-0.59201 0.17137,-0.98149 0.0779,-0.264846 0.20253,-0.560851 0.12463,-0.311584 0.35832,-0.560851 0.23369,-0.264847 0.59201,-0.436218 0.35832,-0.18695 0.88801,-0.18695 0.48296,0 0.77896,0.18695 0.29601,0.171371 0.4518,0.482955 0.15579,0.296005 0.20253,0.701064 0.0623,0.38948 0.0623,0.825698 0,0.373901 -0.10906,1.012648 -0.0935,0.638747 -0.24927,1.417707 -0.14021,0.763381 -0.32716,1.604658 -0.18695,0.825697 -0.35832,1.589078 -0.15579,0.763381 -0.28043,1.386549 -0.12463,0.607588 -0.17137,0.950331 0.0312,-0.06232 0.17137,-0.311584 0.1558,-0.249267 0.35832,-0.607589 0.21811,-0.358322 0.4518,-0.763381 0.23369,-0.405059 0.43622,-0.763381 0.21811,-0.358321 0.3739,-0.623167 0.15579,-0.264847 0.18695,-0.327164 0.28043,-0.467376 0.65433,-1.043806 0.3739,-0.59201 0.77896,-1.184019 0.40506,-0.607589 0.79454,-1.152861 0.40505,-0.545272 0.73222,-0.919173 0.70106,-0.794539 1.48002,-1.199598 0.79454,-0.405059 1.68256,-0.405059 0.95033,0 1.58907,0.654326 0.63875,0.654327 0.85686,1.713712 0.0779,0.38948 0.12463,0.98149 0.0467,0.592009 0.0623,1.246336 0.0312,0.638747 0.0467,1.293073 0.0156,0.654327 0.0156,1.16844 0.0156,0.514114 0.0312,0.841277 0.0156,0.327163 0.0623,0.327163 0.14022,0 0.40506,-0.38948 0.26485,-0.38948 0.59201,-0.98149 0.32716,-0.592009 0.68549,-1.277494 0.35832,-0.685485 0.68548,-1.261915 0.54527,-0.919173 1.15286,-1.76045 0.60759,-0.856856 1.1996,-1.495603 0.60759,-0.654326 1.15286,-1.028227 0.54527,-0.38948 0.96591,-0.38948 0.29601,0 0.60759,0.06232 0.31158,0.06232 0.59201,0.18695 0.296,0.109055 0.52969,0.280426 0.23369,0.155792 0.35832,0.358322 0.26485,0.420638 0.38948,0.919172 0.12464,0.498535 0.17137,1.106123 0.0623,0.607589 0.0779,1.339812 0.0312,0.732222 0.12463,1.620236 0.17138,1.620237 0.49854,2.53941 0.32716,0.919173 0.93475,0.919173 0.26485,0 0.68549,-0.186951 0.43621,-0.202529 0.93475,-0.498534 0.51411,-0.311584 1.0438,-0.685485 0.54528,-0.373901 1.01265,-0.747802 0.51412,-0.405059 0.98149,-0.825697 0.46738,-0.436218 0.91917,-0.888014 0.46738,-0.451797 0.93476,-0.934752 0.48295,-0.498535 1.01264,-1.043807 0.32717,-0.327163 0.74781,-0.327163 0.49853,0 0.49853,0.716643 z m 6.9639,-1.277494 q 0,-0.140213 -0.0623,-0.327163 -0.0467,-0.186951 -0.14022,-0.342743 -0.0779,-0.171371 -0.18695,-0.280425 -0.10905,-0.124634 -0.20253,-0.124634 -1.02822,0 -1.88508,0.560851 -0.84128,0.545272 -1.76045,1.495603 -0.51411,0.514114 -1.10612,1.386549 -0.57643,0.872435 -1.07497,1.853925 -0.49853,0.981489 -0.82569,1.962979 -0.32717,0.98149 -0.32717,1.729291 0,0.186951 0.0156,0.373901 0.0312,0.171371 0.0935,0.311584 0.0779,0.140213 0.20253,0.233688 0.12463,0.09347 0.32716,0.09347 0.59201,0 1.33981,-0.373901 0.7478,-0.38948 1.4956,-0.997068 0.76338,-0.623168 1.46445,-1.417708 0.71664,-0.810118 1.1996,-1.651395 0.59201,-1.028227 1.01264,-2.149929 0.42064,-1.121703 0.42064,-2.33688 z m 14.1615,1.604657 q 0,0.186951 -0.0779,0.451797 -0.0623,0.249267 -0.17137,0.514114 -0.10906,0.249267 -0.24927,0.498534 -0.12463,0.233688 -0.24927,0.405059 -0.0779,0.109055 -0.24926,0.311584 -0.17137,0.186951 -0.38948,0.436218 -0.21811,0.233688 -0.49854,0.514113 -0.26484,0.280426 -0.54527,0.560852 -0.90359,0.841276 -1.83835,1.666974 -0.91917,0.810118 -1.93182,1.448866 -1.01264,0.623168 -2.11877,1.012648 -1.10612,0.389479 -2.35246,0.389479 -0.52969,0 -1.07496,-0.233687 -0.54527,-0.233688 -1.01265,-0.638748 -0.46738,-0.405059 -0.8257,-0.96591 -0.34274,-0.57643 -0.48295,-1.230757 -0.28043,0.467376 -0.73222,1.012648 -0.4518,0.529693 -0.99707,1.059386 -0.5297,0.529693 -1.10613,1.012648 -0.57643,0.467376 -1.07496,0.810118 -0.34274,0.233688 -0.84128,0.482955 -0.48295,0.249267 -1.02822,0.467376 -0.54528,0.20253 -1.10613,0.342743 -0.54527,0.124633 -1.01265,0.124633 -0.7478,0 -1.30865,-0.420638 -0.56085,-0.436218 -0.93475,-1.059386 -0.35832,-0.623168 -0.54527,-1.324232 -0.17137,-0.701064 -0.17137,-1.261915 0,-1.028227 0.296,-2.087613 0.31158,-1.074964 0.77896,-2.087612 0.48296,-1.012648 1.05939,-1.931821 0.59201,-0.919173 1.15286,-1.635816 0.59201,-0.747802 1.4177,-1.480024 0.8257,-0.747801 1.7293,-1.324232 0.90359,-0.592009 1.77602,-0.950331 0.88802,-0.358322 1.5735,-0.358322 0.3739,0 0.76338,0.03116 0.40506,0.01558 0.79454,0.06232 0.38948,0.04674 0.7478,0.140212 0.35833,0.09348 0.63875,0.233688 0.18695,0.124634 0.40506,0.451797 0.23369,0.311584 0.42064,0.685485 0.20253,0.358322 0.34274,0.716643 0.14021,0.358322 0.14021,0.560851 0,0.436218 -0.14021,1.043807 -0.12463,0.592009 -0.296,1.246336 -0.15579,0.654326 -0.29601,1.339811 -0.14021,0.685485 -0.14021,1.308653 0,0.436217 0.12463,0.888014 0.12464,0.451797 0.35832,0.825697 0.23369,0.358322 0.56086,0.59201 0.32716,0.233688 0.73222,0.233688 0.91917,0 1.82276,-0.342742 0.9036,-0.342743 1.80719,-0.934752 0.9036,-0.607589 1.80719,-1.417707 0.90359,-0.825698 1.82277,-1.776029 0.0311,0 0.24926,-0.233688 0.21811,-0.233688 0.51412,-0.514114 0.31158,-0.280425 0.63874,-0.514113 0.34275,-0.233688 0.59201,-0.233688 0.4518,0 0.59201,0.264846 0.14022,0.264846 0.14022,0.810118 z m 13.83432,-0.810118 q 0,0.420638 -0.3739,1.059386 -0.3739,0.623168 -0.95033,1.324232 -0.56085,0.701064 -1.26191,1.433286 -0.70107,0.716643 -1.35539,1.35539 -0.38948,0.373901 -1.15287,1.043807 -0.76338,0.654326 -1.71371,1.448865 -0.93475,0.794539 -1.96298,1.651395 -1.02822,0.841277 -1.9474,1.573499 -0.90359,0.732223 -1.60465,1.277495 -0.70107,0.545272 -0.99707,0.747801 -0.96591,0.638748 -1.80719,0.98149 -0.8257,0.342742 -1.48002,0.342742 -0.54528,0 -0.91918,-0.109054 -0.3739,-0.09347 -0.60759,-0.264846 -0.23368,-0.155792 -0.34274,-0.373901 -0.10905,-0.20253 -0.10905,-0.420639 0,-0.545272 0.20253,-0.981489 0.20253,-0.420639 0.62317,-0.794539 0.43621,-0.373901 1.09054,-0.716644 0.6699,-0.358321 1.5735,-0.732222 0.59201,-0.233688 1.05938,-0.451797 0.48296,-0.218109 0.8257,-0.467376 0.35832,-0.264846 0.54527,-0.592009 0.18695,-0.327163 0.18695,-0.794539 0,-0.109055 -0.15579,-0.40506 -0.14021,-0.296004 -0.3739,-0.685484 -0.23369,-0.38948 -0.52969,-0.841277 -0.28043,-0.467376 -0.56085,-0.903594 -0.28043,-0.451797 -0.5297,-0.841277 -0.24926,-0.389479 -0.38948,-0.654326 -0.63874,-1.184019 -0.63874,-2.414776 0,-0.529693 0.0935,-1.090544 0.0935,-0.560851 0.31159,-1.137281 0.20253,-0.716643 0.65432,-1.402128 0.46738,-0.685485 1.02823,-1.215178 0.56085,-0.545272 1.1217,-0.872435 0.57643,-0.327163 0.99707,-0.327163 0.56085,0 0.91917,0.109054 0.35833,0.09347 0.54528,0.311584 0.20253,0.20253 0.28042,0.529693 0.0779,0.311584 0.0779,0.763381 0,0.373901 -0.18695,0.732222 -0.18695,0.358322 -0.4518,0.669906 -0.26485,0.311584 -0.56085,0.57643 -0.29601,0.264846 -0.51411,0.467376 -0.32717,0.296005 -0.62317,0.560851 -0.29601,0.249267 -0.46738,0.436218 0.0156,0.981489 0.48296,1.807187 0.23368,0.405059 0.57643,0.997069 0.35832,0.592009 0.71664,1.215177 0.3739,0.607589 0.70106,1.16844 0.32717,0.560851 0.51412,0.888015 0.23369,-0.109055 0.6699,-0.40506 0.4518,-0.311584 1.04381,-0.732222 0.59201,-0.436218 1.26191,-0.96591 0.68549,-0.529693 1.37097,-1.090544 0.68549,-0.560851 1.32424,-1.106123 0.63874,-0.560852 1.15286,-1.059386 0.43621,-0.420638 0.71664,-0.716643 0.296,-0.311584 0.49853,-0.498535 0.21811,-0.202529 0.37391,-0.296004 0.15579,-0.109055 0.34274,-0.109055 0.20253,0 0.32716,0.155792 0.14021,0.140213 0.21811,0.327163 0.0779,0.171372 0.10905,0.327164 0.0312,0.155792 0.0312,0.18695 z m -2.81983,6.590001 q 0,-0.716643 0.0779,-1.433286 0.0935,-0.732222 0.21811,-1.433286 0.14021,-0.716643 0.296,-1.386549 0.1558,-0.669906 0.28043,-1.277494 0.17137,-0.810119 0.31158,-1.448866 0.14022,-0.638747 0.17138,-1.184019 -0.23369,0.04674 -0.5297,0.09347 -0.28042,0.03116 -0.57643,0.0779 -0.296,0.03116 -0.57643,0.04674 -0.28042,0.01558 -0.46737,0.01558 -0.48296,0 -0.84128,-0.06232 -0.34274,-0.0779 -0.57643,-0.264846 -0.23369,-0.20253 -0.34274,-0.545272 -0.10906,-0.358322 -0.10906,-0.903594 0,-0.342742 0.15579,-0.57643 0.17138,-0.233688 0.43622,-0.373901 0.28043,-0.140213 0.60759,-0.18695 0.34274,-0.06232 0.66991,-0.06232 0.12463,0 0.48295,-0.03116 0.35832,-0.04674 0.76338,-0.09347 0.40506,-0.04674 0.79454,-0.09347 0.38948,-0.04674 0.57643,-0.06232 0.12464,0 0.23369,-0.18695 0.12463,-0.186951 0.21811,-0.436218 0.10905,-0.264846 0.18695,-0.529693 0.0779,-0.280425 0.10905,-0.467376 0.0779,-0.420638 0.21811,-1.028227 0.15579,-0.607588 0.32717,-1.246336 0.18695,-0.638747 0.3739,-1.215177 0.20253,-0.59201 0.38948,-0.934752 0.24926,-0.482955 0.54527,-0.732223 0.296,-0.249267 0.88801,-0.249267 0.8257,0 1.1996,0.38948 0.38948,0.38948 0.38948,1.199599 0,0.3739 -0.17137,0.96591 -0.15579,0.59201 -0.35832,1.277494 -0.20253,0.669906 -0.38948,1.37097 -0.17137,0.685485 -0.18695,1.230757 0.31158,0 0.90359,-0.06232 0.59201,-0.06232 1.24634,-0.140213 0.65432,-0.09347 1.24633,-0.18695 0.60759,-0.09348 0.91918,-0.155792 0.65432,-0.140213 0.99706,-0.20253 0.35833,-0.0779 0.63875,-0.140213 0.29601,-0.06232 0.62317,-0.140213 0.34274,-0.09347 0.95033,-0.264846 0.23369,0.18695 0.3739,0.296005 0.14021,0.109054 0.20253,0.18695 0.0779,0.06232 0.0935,0.124634 0.0311,0.06232 0.0311,0.140213 0,0.607588 -0.56085,1.121702 -0.56085,0.498534 -1.4177,0.888014 -0.85686,0.38948 -1.86951,0.669906 -0.99707,0.264846 -1.88508,0.420638 -0.65433,0.109055 -1.18402,0.186951 -0.51411,0.0779 -0.90359,0.155792 -0.38948,0.06232 -0.63875,0.155792 -0.24927,0.0779 -0.3739,0.202529 -0.20253,0.701064 -0.46738,1.682554 -0.24926,0.96591 -0.48295,2.040875 -0.23369,1.074965 -0.38948,2.181088 -0.15579,1.090544 -0.15579,2.040875 0,1.074965 0.42063,1.604658 0.42064,0.529692 1.18402,0.529692 0.70107,0 1.37097,-0.09347 0.68549,-0.109054 1.41771,-0.373901 0.7478,-0.280425 1.5735,-0.747801 0.84128,-0.467376 1.8695,-1.199599 0.28043,-0.218108 0.57643,-0.482955 0.31159,-0.264846 0.62317,-0.498534 0.31159,-0.249267 0.63875,-0.405059 0.32716,-0.171372 0.6699,-0.171372 0.31159,0 0.48296,0.155792 0.18695,0.140213 0.18695,0.451797 0,0.233688 -0.15579,0.576431 -0.15579,0.327163 -0.43622,0.701064 -0.28043,0.3739 -0.66991,0.77896 -0.3739,0.38948 -0.84127,0.747801 -0.9036,0.716643 -1.90066,1.37097 -0.98149,0.638747 -2.00972,1.121702 -1.01265,0.482955 -2.04088,0.763381 -1.02822,0.280425 -2.04087,0.280425 -1.24634,0 -2.11877,-0.3739 -0.87244,-0.38948 -1.43329,-1.028228 -0.54527,-0.638747 -0.81012,-1.448865 -0.24926,-0.825698 -0.24926,-1.682554 z m 20.37759,-8.724351 q 0,-0.685485 -0.21811,-0.965911 -0.20252,-0.280425 -0.46737,-0.280425 -0.23369,0 -0.54527,0.280425 -0.31159,0.280426 -0.65433,0.763381 -0.32716,0.467376 -0.6699,1.106123 -0.32717,0.623168 -0.62317,1.324232 -0.28043,0.701064 -0.48296,1.448866 -0.18695,0.732222 -0.26484,1.417707 0.45179,-0.373901 0.81011,-0.669906 0.3739,-0.311584 0.70107,-0.654326 0.32716,-0.327163 0.73222,-0.794539 0.42064,-0.482955 0.79454,-0.997069 0.3739,-0.514114 0.62317,-1.028227 0.26484,-0.514114 0.26484,-0.950331 z m 12.08946,1.682553 q 0,0.124634 -0.0935,0.38948 -0.0935,0.264847 -0.31159,0.623168 -0.60759,0.965911 -1.52676,2.103192 -0.90359,1.137282 -2.00971,2.274563 -1.09055,1.121703 -2.35246,2.181088 -1.24634,1.043807 -2.53941,1.853925 -1.2775,0.810118 -2.55499,1.308653 -1.2775,0.482955 -2.43036,0.482955 -1.46444,0 -2.55499,-0.405059 -1.09054,-0.40506 -1.80718,-1.16844 -0.71665,-0.77896 -1.07497,-1.885083 -0.35832,-1.121703 -0.35832,-2.53941 0,-1.074965 0.15579,-2.274563 0.17137,-1.199598 0.60759,-2.430355 0.43622,-1.246336 1.16844,-2.492672 0.7478,-1.261915 1.90066,-2.430355 0.88802,-0.903594 1.91624,-1.37097 1.02823,-0.467376 1.96298,-0.467376 0.17138,0 0.43622,0.0779 0.26485,0.06232 0.52969,0.186951 0.26485,0.124633 0.51412,0.296004 0.24927,0.171372 0.40506,0.373901 0.49853,0.638747 0.7478,1.215178 0.24927,0.560851 0.24927,1.277494 0,1.121703 -0.31159,2.025296 -0.31158,0.903594 -0.85685,1.698133 -0.5297,0.77896 -1.26192,1.511182 -0.73222,0.732223 -1.5735,1.526762 -0.51411,0.482955 -1.27749,1.059385 -0.76338,0.560851 -1.63582,1.230757 0.12464,0.482955 0.31159,0.841277 0.18695,0.342742 0.46737,0.57643 0.28043,0.233688 0.66991,0.358322 0.40506,0.109054 0.95033,0.109054 0.73222,0 1.55792,-0.249267 0.84127,-0.249267 1.68255,-0.638747 0.73222,-0.342743 1.44887,-0.856856 0.71664,-0.529693 1.44886,-1.090544 0.4518,-0.342743 1.15286,-0.98149 0.71665,-0.654326 1.44887,-1.35539 0.49853,-0.467376 0.99707,-0.903594 0.49853,-0.451796 1.05938,-0.997068 l 0.8257,-0.810119 q 0.90359,-0.732222 1.46445,-0.732222 0.296,0 0.3739,0.171371 0.0779,0.171371 0.0779,0.327163 z m 12.52567,-1.184019 q 0,0.638747 -0.40506,1.059386 -0.40505,0.405059 -1.01264,0.405059 -0.42064,0 -0.76338,-0.155792 -0.32717,-0.155792 -0.60759,-0.342743 -0.28043,-0.202529 -0.5297,-0.358321 -0.23368,-0.155792 -0.48295,-0.155792 -0.28043,0 -0.60759,0.18695 -0.32716,0.186951 -0.68548,0.514114 -0.35833,0.311584 -0.74781,0.732222 -0.3739,0.420639 -0.7478,0.888015 -0.26484,0.327163 -0.59201,0.794539 -0.32716,0.451797 -0.65432,0.950331 -0.32717,0.498534 -0.62317,1.012648 -0.29601,0.514113 -0.51411,0.950331 -0.18696,0.38948 -0.42064,0.903594 -0.21811,0.514113 -0.42064,1.043806 -0.18695,0.529693 -0.34274,1.012648 -0.1558,0.482955 -0.20253,0.810118 -0.0935,0.607589 -0.18695,1.121703 -0.0935,0.514113 -0.26485,0.888014 -0.15579,0.358322 -0.43622,0.560851 -0.26484,0.20253 -0.73222,0.20253 -0.84128,0 -1.26192,-0.358322 -0.42063,-0.358321 -0.60758,-0.919173 -0.17138,-0.560851 -0.20253,-1.230756 -0.0312,-0.669906 -0.0935,-1.293074 -0.0467,-0.405059 -0.0779,-0.810118 -0.0312,-0.405059 -0.0623,-0.841277 -0.0156,-0.451797 -0.0312,-0.950331 -0.0156,-0.514114 -0.0156,-1.121703 0,-0.794539 0.0623,-1.776028 0.0623,-0.98149 0.14021,-1.885083 0.0935,-0.903594 0.18695,-1.604658 0.10906,-0.701064 0.18695,-0.934752 0.15579,-0.420638 0.42064,-0.794539 0.26485,-0.38948 0.57643,-0.669906 0.32716,-0.296004 0.66991,-0.467376 0.35832,-0.171371 0.68548,-0.171371 0.296,0 0.59201,0.0779 0.31158,0.0779 0.54527,0.264847 0.24927,0.18695 0.40506,0.498534 0.15579,0.296005 0.15579,0.747802 0,0.109054 -0.0779,0.358321 -0.0779,0.233688 -0.20253,0.685485 -0.14022,0.482955 -0.31159,1.121702 -0.17137,0.638747 -0.32716,1.308653 -0.14021,0.669906 -0.24927,1.324232 -0.10905,0.654326 -0.12463,1.16844 0.0779,-0.171371 0.28042,-0.560851 0.20253,-0.405059 0.42064,-0.841277 0.23369,-0.451797 0.4518,-0.856856 0.21811,-0.420638 0.32716,-0.607589 0.4518,-0.763381 1.04381,-1.620237 0.59201,-0.856855 1.33981,-1.573499 0.76338,-0.732222 1.71371,-1.199598 0.95033,-0.482955 2.08762,-0.482955 0.87243,0 1.4956,0.264846 0.63875,0.249267 1.0438,0.669906 0.40506,0.420638 0.59201,0.96591 0.20253,0.529693 0.20253,1.090544 z"
     id="text4"
     style="font-weight:bold;font-size:31.9062px;font-family:'Segoe Script';-inkscape-font-specification:'Segoe Script, Bold';white-space:pre;inline-size:122.147;fill:#8fe9e9;fill-opacity:1"
     inkscape:label="text4"
     transform="matrix(2.9252415,0,-0.98418116,2.9252415,-342.61436,-97.628246)"
     aria-label="master" />
</svg>
