<?xml version="1.0" encoding="UTF-8" standalone="no"?>
<svg
   width="128"
   height="128"
   fill="none"
   version="1.1"
   id="svg4"
   sodipodi:docname="cxm-icon.svg"
   inkscape:version="1.3.2 (091e20ef0f, 2023-11-25)"
   inkscape:export-filename="cxm-icon-128.png"
   inkscape:export-xdpi="104.13559"
   inkscape:export-ydpi="104.13559"
   xmlns:inkscape="http://www.inkscape.org/namespaces/inkscape"
   xmlns:sodipodi="http://sodipodi.sourceforge.net/DTD/sodipodi-0.dtd"
   xmlns:xlink="http://www.w3.org/1999/xlink"
   xmlns="http://www.w3.org/2000/svg"
   xmlns:svg="http://www.w3.org/2000/svg">
  <sodipodi:namedview
     id="namedview4"
     pagecolor="#1e1e21"
     bordercolor="#000000"
     borderopacity="0.25"
     inkscape:showpageshadow="2"
     inkscape:pageopacity="0.0"
     inkscape:pagecheckerboard="0"
     inkscape:deskcolor="#0a1019"
     inkscape:zoom="2.1853274"
     inkscape:cx="-13.041524"
     inkscape:cy="73.90197"
     inkscape:window-width="1515"
     inkscape:window-height="868"
     inkscape:window-x="0"
     inkscape:window-y="0"
     inkscape:window-maximized="1"
     inkscape:current-layer="svg4"
     showguides="false" />
  <path
     id="rect5"
     d="M 64,5 C 123,5 123,5 123,64 123,123 123,123 64,123 5,123 5,123 5,64 5,5 5,5 64,5 Z"
     style="fill:url(#radialGradient21);fill-opacity:1;stroke:none;stroke-width:5.36364;stroke-linejoin:round;stroke-dasharray:none;stroke-opacity:1;fill-rule:nonzero"
     sodipodi:nodetypes="zzzzz"
     clip-path="url(#clipPath11)" />
  <path
     id="path1"
     d="m 26.902343,19.34375 c -0.162591,4.57e-4 -0.318828,0.01914 -0.470703,0.05664 a 3,3 0 0 0 -1.367187,0.757813 c -0.898999,0.869999 -0.918031,2.606128 -0.957031,6.078125 l -0.283204,25.408203 c 0.0433,-0.07257 0.08536,-0.159809 0.128907,-0.230469 l 0.0059,-0.01172 0.0078,-0.0098 c 0.365299,-0.579479 0.781317,-1.176063 1.246093,-1.791016 l 0.002,-0.002 c 0.578625,-0.785215 1.270752,-1.486885 2.046875,-2.099609 0.816595,-0.666752 1.739472,-1.208139 2.736329,-1.623047 1.170225,-0.514936 2.453311,-0.755859 3.771484,-0.755859 1.242112,0 2.497501,0.21205 3.595703,1.064453 0.942045,0.700675 1.606126,1.84003 1.798828,2.957031 0.18534,1.003159 0.108362,1.997538 -0.111328,3.001953 -0.04031,0.221956 -0.09887,0.449283 -0.148437,0.673828 l 19.804687,-11.75 c 0.947999,-0.561999 1.421344,-0.841375 1.527344,-1.234375 a 0.999,0.999 0 0 0 0.002,-0.509765 c -0.1,-0.394 -0.568767,-0.679907 -1.509766,-1.253907 L 32.091797,21.814453 C 29.498299,20.230705 28.040485,19.340551 26.902343,19.34375 Z m 37.308594,21.660156 v 21.65625 c 0.460587,-0.521893 0.956443,-1.101335 1.394531,-1.585937 l 0.01172,-0.01367 0.01172,-0.01172 c 1.70238,-1.831177 3.443562,-3.586975 5.220703,-5.265625 1.789106,-1.710546 3.503345,-3.216872 5.146484,-4.517578 0.82363,-0.651079 1.612905,-1.236289 2.378907,-1.763672 z m 28.285161,16.970703 c -0.021,0.08391 -0.0328,0.161493 -0.0547,0.246094 l -0.002,0.0078 c -0.289605,1.230419 -0.659801,2.559798 -1.111323,3.996094 -0.4032,1.372203 -0.802288,2.905888 -1.19336,4.597656 -0.703619,3.050303 -1.004332,5.393085 -0.976562,6.81836 7e-4,0.03696 0.0022,0.005 0.0039,0.03906 0.226174,-0.056 0.229816,-0.03622 0.603516,-0.179687 0.905344,-0.364215 1.915394,-0.818865 3.027343,-1.369141 1.16072,-0.58464 2.36061,-1.228807 3.59961,-1.935547 l 0.01,-0.0059 0.0117,-0.0059 c 1.27278,-0.709148 2.46704,-1.416303 3.58204,-2.119141 l 0.006,-0.0039 0.006,-0.0039 c 0.85441,-0.532095 1.66359,-1.078253 2.47852,-1.623046 A 14.003,14.003 0 0 0 101.4067,64.523354 C 99.785402,62.363592 97.324752,60.871299 92.496552,57.974526 Z M 75.205078,68.125 c -0.754631,0.796436 -1.45682,1.521592 -2.31836,2.464844 l -0.0039,0.0059 -0.0059,0.0039 c -1.42733,1.54361 -2.906736,3.149589 -4.435547,4.814453 l -0.0098,0.01172 c -1.490106,1.641097 -2.880578,3.121054 -4.220703,4.517578 v 7.060547 l 32.048831,19.228518 c 2.98799,1.793 4.481311,2.68896 5.695311,2.37696 a 3.002,3.002 0 0 0 1.36328,-0.76954 c 0.892,-0.88099 0.89258,-2.62437 0.89258,-6.10937 V 78.875 c 0,-0.24297 -0.004,-0.411574 -0.004,-0.644531 -0.93636,0.664242 -1.88412,1.351511 -2.79101,1.957031 l -0.0156,0.0098 -0.0137,0.0098 c -1.16047,0.751208 -2.489721,1.57315 -3.992191,2.466797 -1.5483,0.920916 -3.153,1.776781 -4.8125,2.568359 -1.682019,0.802324 -3.362318,1.47947 -5.041013,2.03125 l -0.01172,0.0039 -0.01367,0.0039 c -1.721717,0.546764 -3.373287,0.847656 -4.966797,0.847656 -1.505429,0 -2.96999,-0.299922 -4.294922,-0.921875 l -0.04883,-0.02148 -0.04687,-0.02539 c -1.571339,-0.82116 -2.667738,-2.283752 -3.351563,-3.960937 l -0.0098,-0.02149 -0.0078,-0.02344 C 74.095659,81.35134 73.89228,79.254341 73.9549,76.724662 c 0.05773,-2.332424 0.55581,-5.288552 1.25,-8.599609 z"
     style="fill:#ffaf5b;fill-opacity:1"
     clip-path="url(#clipPath10)" />
  <path
     id="path2"
     d="m 101.48438,19.335937 c -1.14029,-0.01282 -2.610122,0.869502 -5.224612,2.4375 L 64.210937,41.003906 78.375,49.501953 c 0.802177,-0.55229 1.57853,-1.04081 2.328125,-1.458984 1.504942,-0.865108 2.852688,-1.464844 4.4375,-1.464844 0.752806,0 1.50349,0.08032 2.240234,0.238281 0.721876,0.154813 1.411595,0.405564 2.0625,0.732422 0.692193,0.300248 1.339218,0.711819 1.896484,1.236328 0.638955,0.563468 1.186045,1.33369 1.433595,2.208984 0.33282,1.145634 0.43044,2.357158 0.32422,3.585938 -0.0923,1.068623 -0.30298,2.199958 -0.60156,3.394531 4.8282,2.896773 7.28885,4.389066 8.910152,6.548828 a 13.746,13.746 0 0 1 0.34375,0.480469 c 0.569,-0.828999 1.04774,-1.719345 1.42774,-2.652344 1.032,-2.535997 1.0332,-5.429755 1.0332,-11.21875 V 26.27539 c 0,-3.484996 -5.8e-4,-5.226422 -0.89258,-6.107421 -0.378,-0.373 -0.84928,-0.639485 -1.36328,-0.771485 -0.15175,-0.039 -0.30781,-0.05871 -0.4707,-0.06055 z M 64.210937,41.003906 51.808593,48.445312 c 1.59604,-0.533042 3.208757,-0.818359 4.814454,-0.818359 2.427052,0 4.832174,1.066929 6.111328,3.066406 1.213744,1.897255 1.511598,4.233029 1.191406,6.685547 v 0.0059 l -0.002,0.0078 c -0.124012,0.908089 -0.34328,1.941171 -0.65625,3.15625 -0.309249,1.200299 -0.669871,2.455349 -1.080078,3.767578 -0.0932,0.32364 -0.197089,0.656862 -0.292969,0.982422 0.147419,-0.17089 0.274273,-0.312268 0.423828,-0.486328 0.668061,-0.777572 1.267496,-1.444059 1.892578,-2.152344 z m -20.419922,12.25 -6.388672,3.833984 c -0.160801,0.338303 -0.305494,0.655125 -0.496093,1.03125 -0.487773,1.009669 -1.089655,2.160027 -1.705078,3.328125 0.771974,-0.783389 1.536916,-1.56675 2.335937,-2.349609 1.195765,-1.191839 2.358608,-2.325165 3.486328,-3.398437 l 0.01172,-0.01172 0.01172,-0.01172 c 1.020815,-0.945834 1.905975,-1.716288 2.74414,-2.421875 z m 3.21875,13.597656 c -0.389291,0.3576 -0.62635,0.534921 -1.052734,0.9375 -1.674057,1.609449 -3.577473,3.514147 -5.699219,5.708985 l -0.01172,0.01367 c -2.094277,2.198037 -4.291138,4.563528 -6.591796,7.097656 -0.601661,0.681779 -1.304078,1.458584 -2.117188,2.339844 -0.817269,0.885789 -1.656099,1.785392 -2.513672,2.701171 -0.854724,0.91274 -1.69887,1.795922 -2.535156,2.650391 l -0.0332,0.0332 c -0.807535,0.854939 -1.540145,1.602259 -2.197266,2.236328 l -0.002,0.002 c -0.01467,0.01424 -0.0302,0.02685 -0.04492,0.04102 v 11.117193 c 0,3.485 -0.0014,5.22838 0.890625,6.10937 a 3,3 0 0 0 1.363281,0.76954 c 1.213999,0.312 2.707316,-0.58396 5.695313,-2.37696 L 64.210937,87.003906 v -7.060547 c -0.407725,0.424886 -0.832562,0.876956 -1.226562,1.279297 l -0.002,0.002 c -1.664086,1.710288 -3.207633,3.17309 -4.644532,4.392578 l -0.0039,0.0039 c -1.410593,1.200858 -2.7498,2.16288 -4.066406,2.880859 -1.340962,0.748259 -2.739844,1.220703 -4.201172,1.220703 -1.705522,0 -3.290213,-0.274927 -4.630859,-1.253906 l -0.03516,-0.02539 -0.0332,-0.02734 c -1.266007,-0.993284 -1.991903,-2.536373 -2.203084,-4.091841 l -0.002,-0.01563 -0.002,-0.01563 c -0.190295,-1.546729 -0.02355,-3.20926 0.382812,-5.111329 l 0.002,-0.002 v -0.002 c 0.402005,-1.863218 0.983512,-4.007997 1.746093,-6.458984 l 0.002,-0.0039 v -0.002 c 0.791751,-2.523427 1.203002,-4.05888 1.716797,-5.861328 z"
     style="fill:#c04788;fill-opacity:1"
     clip-path="url(#clipPath9)" />
  <defs
     id="defs4">
    <linearGradient
       id="linearGradient19"
       inkscape:collect="always">
      <stop
         style="stop-color:#2e2f2f;stop-opacity:1;"
         offset="0.4900097"
         id="stop21" />
      <stop
         style="stop-color:#051014;stop-opacity:1;"
         offset="1"
         id="stop20" />
    </linearGradient>
    <inkscape:path-effect
       effect="fillet_chamfer"
       id="path-effect8"
       is_visible="true"
       lpeversion="1"
       nodesatellites_param="F,0,0,1,0,15,0,1 @ F,0,0,1,0,15,0,1 @ F,0,0,1,0,15,0,1 @ F,0,0,1,0,15,0,1"
       radius="0"
       unit="px"
       method="auto"
       mode="F"
       chamfer_steps="1"
       flexible="false"
       use_knot_distance="true"
       apply_no_radius="true"
       apply_with_radius="true"
       only_selected="false"
       hide_knots="false" />
    <inkscape:path-effect
       effect="fillet_chamfer"
       id="path-effect7"
       is_visible="true"
       lpeversion="1"
       nodesatellites_param="F,0,0,1,0,0,0,1 @ F,0,0,1,0,0,0,1 @ F,0,0,1,0,0,0,1 @ F,0,0,1,0,0,0,1"
       radius="0"
       unit="px"
       method="auto"
       mode="F"
       chamfer_steps="1"
       flexible="false"
       use_knot_distance="true"
       apply_no_radius="true"
       apply_with_radius="true"
       only_selected="false"
       hide_knots="false" />
    <inkscape:path-effect
       effect="fillet_chamfer"
       id="path-effect6"
       is_visible="true"
       lpeversion="1"
       nodesatellites_param="F,0,0,1,0,0,0,1 @ F,0,0,1,0,0,0,1 @ F,0,0,1,0,0,0,1 @ F,0,0,1,0,0,0,1"
       radius="0"
       unit="px"
       method="auto"
       mode="F"
       chamfer_steps="1"
       flexible="false"
       use_knot_distance="true"
       apply_no_radius="true"
       apply_with_radius="true"
       only_selected="false"
       hide_knots="false" />
    <inkscape:path-effect
       effect="fillet_chamfer"
       id="path-effect5"
       is_visible="true"
       lpeversion="1"
       nodesatellites_param="F,0,0,1,0,0,0,1 @ F,0,0,1,0,0,0,1 @ F,0,0,1,0,0,0,1 @ F,0,0,1,0,0,0,1"
       radius="0"
       unit="px"
       method="auto"
       mode="F"
       chamfer_steps="1"
       flexible="false"
       use_knot_distance="true"
       apply_no_radius="true"
       apply_with_radius="true"
       only_selected="false"
       hide_knots="false" />
    <rect
       x="167.89827"
       y="88.813377"
       width="321.21323"
       height="106.04616"
       id="rect1" />
    <clipPath
       clipPathUnits="userSpaceOnUse"
       id="clipPath9">
      <g
         id="g10">
        <path
           fill="#ffffff"
           d="M -7.7900117,-7.6649208 H 628.20999 V 136.33508 H -7.7900117 Z"
           id="path9" />
      </g>
    </clipPath>
    <clipPath
       clipPathUnits="userSpaceOnUse"
       id="clipPath10">
      <g
         id="g11">
        <path
           fill="#ffffff"
           d="M -7.7900117,-7.6649208 H 628.20999 V 136.33508 H -7.7900117 Z"
           id="path10" />
      </g>
    </clipPath>
    <clipPath
       clipPathUnits="userSpaceOnUse"
       id="clipPath11">
      <g
         id="g12">
        <path
           fill="#ffffff"
           d="M -7.7900117,-7.6649208 H 628.20999 V 136.33508 H -7.7900117 Z"
           id="path11" />
      </g>
    </clipPath>
    <radialGradient
       inkscape:collect="always"
       xlink:href="#linearGradient19"
       id="radialGradient21"
       cx="64"
       cy="64"
       fx="64"
       fy="64"
       r="59"
       gradientUnits="userSpaceOnUse"
       spreadMethod="pad" />
  </defs>
  <g
     id="text4-7"
     inkscape:label="text4" />
  <path
     d="m 119.48065,60.517638 c -0.092,0.27345 -0.29071,0.63802 -0.59586,1.09375 -0.2645,0.42535 -0.59026,0.89627 -0.97661,1.41276 -0.37622,0.48611 -0.80312,0.98741 -1.2807,1.50391 -0.44729,0.51649 -0.88423,1.0026 -1.31098,1.45833 -0.74166,0.75955 -1.6913,1.64062 -2.84892,2.64323 -1.15764,1.0026 -2.42174,2.05078 -3.79236,3.14453 -1.37058,1.09375 -2.80192,2.1875 -4.29405,3.281245 -1.49212,1.09375 -2.94349,2.11155 -4.35411,3.05339 -1.126408,0.72916 -2.430278,1.53428 -3.911608,2.41536 -1.48133,0.88108 -3.01816,1.70139 -4.61051,2.46094 -1.59235,0.75955 -3.17421,1.39757 -4.74554,1.91406 -1.53072,0.48611 -2.934122,0.72917 -4.210171,0.72917 -1.184898,0 -2.262736,-0.22788 -3.233553,-0.6836 -0.930199,-0.48611 -1.661645,-1.38237 -2.19431,-2.6888 -0.502301,-1.30642 -0.724499,-3.12934 -0.666592,-5.46875 0.05791,-2.339405 0.502852,-5.377595 1.334778,-9.114575 0.09224,-0.36459 0.235711,-0.92665 0.430704,-1.6862 0.235345,-0.78993 0.450369,-1.56467 0.645362,-2.32422 0.235344,-0.78993 0.419702,-1.47352 0.553365,-2.05078 0.13337,-0.57726 0.169632,-0.86589 0.10908,-0.86589 -0.243088,0 -0.775869,0.36459 -1.59846,1.09375 -0.792198,0.72917 -1.787686,1.70139 -2.986491,2.91667 -1.158191,1.1849 -2.458792,2.56727 -3.901803,4.14714 -1.432761,1.54948 -2.916358,3.15972 -4.450792,4.83073 -1.93082,2.126725 -3.729301,4.040795 -5.395471,5.742175 -1.625556,1.67101 -3.11868,3.08377 -4.479314,4.23829 -1.320048,1.12413 -2.538028,1.99001 -3.653941,2.59765 -1.08549,0.60764 -2.083973,0.91146 -2.995449,0.91146 -1.397563,0 -2.450003,-0.25824 -3.157313,-0.77474 -0.697089,-0.54688 -1.119882,-1.36719 -1.268376,-2.46094 -0.138302,-1.12413 -0.02245,-2.55208 0.347531,-4.28385 0.380201,-1.76215 0.943642,-3.84332 1.69041,-6.243485 1.258307,-4.01042 2.174255,-7.13976 2.748399,-9.38802 0.604596,-2.24827 0.75484,-3.3724 0.451025,-3.3724 -0.364573,0 -1.130643,0.47092 -2.298209,1.41276 -1.167566,0.94184 -2.619803,2.23307 -4.35668,3.8737 -1.706484,1.64062 -3.63162,3.56988 -5.775377,5.78776 -2.113394,2.21788 -4.328583,4.602865 -6.645538,7.154945 -0.589453,0.6684 -1.290651,1.44314 -2.103594,2.32422 -0.812914,0.88107 -1.646151,1.77734 -2.49968,2.6888 -0.853529,0.91146 -1.696836,1.79254 -2.52992,2.64323 -0.802693,0.85069 -1.518922,1.57986 -2.148719,2.1875 -0.812641,0.78993 -1.685495,1.39757 -2.618534,1.82292 -0.922815,0.39496 -1.824764,0.59244 -2.705818,0.59244 -1.245656,0 -2.222156,-0.25824 -2.929466,-0.77474 -0.697089,-0.54687 -1.165728,-1.27604 -1.405947,-2.1875 -0.240219,-0.91146 -0.287521,-1.99002 -0.141848,-3.23567 0.176007,-1.24566 0.499172,-2.56728 0.969376,-3.96485 0.419095,-1.24566 0.827725,-2.36979 1.225892,-3.37239 0.397872,-1.00261 0.82646,-2.00521 1.285471,-3.007815 0.468941,-1.03298 0.968717,-2.11154 1.498774,-3.23567 0.56045,-1.12414 1.19245,-2.41537 1.895733,-3.8737 0.611559,-1.27604 1.198134,-2.61285 1.75946,-4.01042 0.571401,-1.42795 1.127763,-2.81033 1.668791,-4.14714 0.550958,-1.36718 1.081642,-2.62803 1.591645,-3.78255 0.509827,-1.15451 0.99914,-2.11154 1.467263,-2.87109 0.325591,-0.51649 0.707154,-1.06337 1.144428,-1.64063 0.447524,-0.60764 0.980879,-1.15451 1.600151,-1.64062 0.629496,-0.5165 1.349869,-0.94184 2.16109,-1.27604 0.821443,-0.36459 1.748646,-0.54688 2.781636,-0.54688 0.94184,0 1.640074,0.1823 2.094654,0.54688 0.464827,0.3342 0.74693,0.80512 0.846309,1.41276 0.1096,0.57725 0.07709,1.26085 -0.09753,2.05078 -0.134148,0.75955 -0.344182,1.56467 -0.630394,2.41536 -0.245324,0.72917 -0.683721,1.71659 -1.315656,2.96224 -0.601337,1.24566 -1.309577,2.62804 -2.124455,4.14714 -0.774381,1.48872 -1.619745,3.05339 -2.536297,4.69401 -0.90633,1.61024 -1.777033,3.15972 -2.612113,4.64844 -0.804686,1.48872 -1.533009,2.84071 -2.184941,4.05599 -0.641739,1.184885 -1.120565,2.111535 -1.436596,2.779945 0.101738,-0.12155 0.370984,-0.42536 0.807954,-0.91146 0.467394,-0.48611 1.016111,-1.07856 1.64615,-1.777345 0.660461,-0.69878 1.351438,-1.44314 2.072929,-2.23307 0.721491,-0.78993 1.397286,-1.53429 2.027354,-2.23307 0.660462,-0.69879 1.229471,-1.30643 1.707057,-1.82292 0.477588,-0.51649 0.767218,-0.8355 0.868863,-0.95703 0.853529,-0.91146 1.833984,-1.92925 2.941367,-3.05339 1.117605,-1.15451 2.265574,-2.30902 3.443936,-3.46354 1.188583,-1.18489 2.341541,-2.30903 3.458845,-3.37239 1.147668,-1.06337 2.163205,-1.95964 3.046553,-2.68881 1.888484,-1.54948 3.725163,-2.71918 5.510038,-3.50911 1.815238,-0.78993 3.588773,-1.1849 5.320545,-1.1849 1.853287,0 3.1881,0.63802 4.004439,1.91406 0.816338,1.27605 1.089645,2.94705 0.819919,5.01303 -0.103726,0.75954 -0.304024,1.71658 -0.601391,2.87109 -0.297455,1.15452 -0.645483,2.36979 -1.044378,3.64584 -0.35825,1.24565 -0.736823,2.50651 -1.136009,3.78255 -0.398895,1.27604 -0.767003,2.41536 -1.104323,3.41797 -0.306899,1.0026 -0.552465,1.82291 -0.736702,2.46093 -0.184236,0.63803 -0.23072,0.95703 -0.139745,0.95703 0.27351,0 0.796191,-0.37977 1.568218,-1.13932 0.772055,-0.75955 1.671282,-1.71658 2.697736,-2.87109 1.026454,-1.15452 2.113937,-2.40018 3.262509,-3.73698 1.148543,-1.33681 2.230915,-2.56728 3.247148,-3.69141 1.666443,-1.79253 3.368118,-3.50912 5.104995,-5.14974 1.747099,-1.67101 3.407464,-3.12934 4.981064,-4.375 1.614215,-1.27604 3.075677,-2.27865 4.384356,-3.00781 1.3189,-0.75955 2.388513,-1.13933 3.208834,-1.13933 0.57727,0 1.14929,0.0608 1.71602,0.18231 0.56673,0.12154 1.08267,0.30382 1.54778,0.54687 0.50569,0.21266 0.9302,0.48611 1.27348,0.82031 0.35351,0.30382 0.58535,0.65322 0.69552,1.04818 0.24052,0.82031 0.31873,1.71658 0.23469,2.6888 -0.084,0.97223 -0.27979,2.05078 -0.58732,3.23568 -0.27726,1.18489 -0.64074,2.49132 -1.09074,3.91927 -0.41958,1.42795 -0.82972,3.00781 -1.23004,4.73958 -0.72886,3.15973 -1.07582,5.63586 -1.04089,7.42839 0.0349,1.792535 0.64484,2.688795 1.82974,2.688795 0.51651,0 1.24623,-0.1823 2.18922,-0.54687 0.98357,-0.39497 2.05857,-0.88108 3.22502,-1.458325 1.20703,-0.60764 2.44969,-1.27605 3.728,-2.00521 1.30871,-0.72917 2.541448,-1.45834 3.698218,-2.18751 1.2684,-0.78992 2.4963,-1.59505 3.68373,-2.41536 1.19769,-0.85069 2.38528,-1.71658 3.56276,-2.59765 1.20791,-0.88108 2.42602,-1.79254 3.65437,-2.73438 1.26894,-0.97222 2.59874,-1.99002 3.9895,-3.05339 0.85268,-0.63802 1.68919,-0.95703 2.50951,-0.95703 0.97221,0 1.22322,0.69879 0.75302,2.09636 z"
     id="text4"
     style="font-weight:bold;font-size:31.9062px;font-family:'Segoe Script';-inkscape-font-specification:'Segoe Script, Bold';white-space:pre;inline-size:122.147;display:inline;fill:#8fe9e9;fill-opacity:1;stroke-width:2.92524"
     inkscape:label="text4"
     aria-label="master"
     sodipodi:nodetypes="cccccssscsscsccsccccscccccccscccccsscccsscccscscscccccccccccscccsccccccccscsccccccsscccccsssssccccsscccscccssccccccccscccc" />
</svg>
