<?xml version="1.0" encoding="UTF-8" standalone="no"?>
<svg
   width="636"
   height="200"
   fill="none"
   version="1.1"
   id="svg4"
   sodipodi:docname="logo-inverted.svg"
   inkscape:version="1.3.2 (091e20ef0f, 2023-11-25, custom)"
   xmlns:inkscape="http://www.inkscape.org/namespaces/inkscape"
   xmlns:sodipodi="http://sodipodi.sourceforge.net/DTD/sodipodi-0.dtd"
   xmlns="http://www.w3.org/2000/svg"
   xmlns:svg="http://www.w3.org/2000/svg">
  <sodipodi:namedview
     id="namedview4"
     pagecolor="#1e1e21"
     bordercolor="#000000"
     borderopacity="0.25"
     inkscape:showpageshadow="2"
     inkscape:pageopacity="0.0"
     inkscape:pagecheckerboard="0"
     inkscape:deskcolor="#0a1019"
     inkscape:zoom="1.076271"
     inkscape:cx="324.26777"
     inkscape:cy="55.748041"
     inkscape:window-width="1542"
     inkscape:window-height="893"
     inkscape:window-x="0"
     inkscape:window-y="0"
     inkscape:window-maximized="1"
     inkscape:current-layer="svg4" />
  <g
     clip-path="url(#a)"
     id="g3"
     transform="translate(0,6.6591767)">
    <path
       fill="#ffaf5b"
       fill-rule="evenodd"
       d="m 32.854,27.823 c -0.899,0.87 -0.918,2.606 -0.957,6.078 l -0.293,26.26 c -0.039,3.506 -0.058,5.26 0.829,6.151 a 3,3 0 0 0 1.36,0.785 c 1.215,0.321 2.724,-0.573 5.74,-2.363 l 26.966,-16 c 0.948,-0.562 1.421,-0.843 1.527,-1.236 a 0.999,0.999 0 0 0 0.003,-0.508 c -0.1,-0.394 -0.57,-0.681 -1.511,-1.255 L 39.882,29.48 c -2.964,-1.81 -4.446,-2.714 -5.661,-2.414 a 3,3 0 0 0 -1.367,0.758 z m 78.254,87.681 C 112,114.623 112,112.881 112,109.396 V 86.54 c 0,-5.79 0,-8.684 -1.032,-11.221 a 14.003,14.003 0 0 0 -1.772,-3.13 c -1.644,-2.19 -4.127,-3.68 -9.091,-6.658 L 72,48.668 v 46 l 32.049,19.23 c 2.988,1.793 4.483,2.689 5.697,2.377 a 3.002,3.002 0 0 0 1.362,-0.771 z"
       clip-rule="evenodd"
       id="path1" />
    <path
       fill="#c04788"
       fill-rule="evenodd"
       d="m 112,58.797 c 0,5.789 0,8.684 -1.032,11.22 -0.38,0.933 -0.859,1.822 -1.428,2.651 a 13.746,13.746 0 0 0 -0.344,-0.479 c -1.644,-2.19 -4.127,-3.68 -9.091,-6.658 L 72,48.668 104.049,29.438 c 2.988,-1.792 4.483,-2.689 5.697,-2.377 0.514,0.132 0.984,0.398 1.362,0.771 C 112,28.713 112,30.456 112,33.941 Z M 33.032,75.319 C 32,77.856 32,80.751 32,86.539 v 22.857 c 0,3.485 0,5.227 0.892,6.108 a 3,3 0 0 0 1.362,0.771 c 1.214,0.312 2.709,-0.584 5.697,-2.377 L 72,94.668 v -46 L 43.895,65.531 C 38.93,68.51 36.448,70 34.805,72.19 a 13.999,13.999 0 0 0 -1.773,3.13 z"
       clip-rule="evenodd"
       id="path2" />
    <path
       fill="#c04788"
       d="m 166,96.938 c -4.917,0 -9.146,-1.042 -12.688,-3.126 -3.52,-2.104 -6.229,-5.02 -8.124,-8.75 -1.876,-3.729 -2.813,-8.02 -2.813,-12.874 0,-4.917 0.948,-9.23 2.844,-12.938 1.916,-3.73 4.635,-6.635 8.156,-8.719 3.521,-2.104 7.708,-3.156 12.563,-3.156 4.187,0 7.854,0.76 11,2.281 3.145,1.521 5.635,3.657 7.468,6.407 1.659,2.487 2.644,5.366 2.955,8.638 a 0.966,0.966 0 0 1 -0.975,1.049 h -10.648 c -0.496,0 -0.912,-0.365 -1.017,-0.85 -0.436,-2.005 -1.322,-3.65 -2.659,-4.931 -1.5,-1.48 -3.468,-2.219 -5.906,-2.219 -2.062,0 -3.864,0.563 -5.406,1.688 -1.521,1.104 -2.708,2.718 -3.562,4.843 -0.855,2.125 -1.282,4.698 -1.282,7.719 0,3.063 0.417,5.667 1.25,7.813 0.854,2.145 2.052,3.78 3.594,4.906 1.542,1.125 3.344,1.687 5.406,1.687 1.521,0 2.886,-0.312 4.094,-0.937 1.229,-0.625 2.24,-1.531 3.031,-2.719 0.673,-1 1.153,-2.166 1.44,-3.495 0.105,-0.484 0.521,-0.849 1.017,-0.849 h 10.641 a 0.967,0.967 0 0 1 0.975,1.055 c -0.326,3.235 -1.299,6.112 -2.916,8.633 -1.771,2.77 -4.219,4.937 -7.344,6.5 -3.125,1.562 -6.823,2.344 -11.094,2.344 z m 47.688,0 c -4.854,0 -9.052,-1.032 -12.593,-3.094 -3.521,-2.084 -6.24,-4.98 -8.157,-8.688 -1.916,-3.729 -2.875,-8.052 -2.875,-12.969 0,-4.958 0.959,-9.291 2.875,-13 1.917,-3.729 4.636,-6.624 8.157,-8.687 3.541,-2.083 7.739,-3.125 12.593,-3.125 4.855,0 9.042,1.042 12.563,3.125 3.542,2.063 6.271,4.958 8.187,8.688 1.917,3.708 2.875,8.041 2.875,13 0,4.916 -0.958,9.24 -2.875,12.968 -1.916,3.709 -4.645,6.604 -8.187,8.688 -3.521,2.062 -7.708,3.094 -12.563,3.094 z m 0.063,-10.313 c 2.208,0 4.052,-0.625 5.531,-1.875 1.479,-1.27 2.594,-3 3.344,-5.188 0.771,-2.187 1.156,-4.677 1.156,-7.468 0,-2.792 -0.385,-5.281 -1.156,-7.469 -0.75,-2.188 -1.865,-3.917 -3.344,-5.188 -1.479,-1.27 -3.323,-1.906 -5.531,-1.906 -2.229,0 -4.104,0.636 -5.625,1.907 -1.5,1.27 -2.635,3 -3.406,5.187 -0.75,2.188 -1.125,4.677 -1.125,7.469 0,2.791 0.375,5.281 1.125,7.469 0.771,2.187 1.906,3.916 3.406,5.187 1.521,1.25 3.396,1.875 5.625,1.875 z m 46.386,10.156 c -3.646,0 -6.948,-0.937 -9.906,-2.812 -2.938,-1.896 -5.271,-4.677 -7,-8.344 -1.708,-3.688 -2.563,-8.208 -2.563,-13.563 0,-5.5 0.886,-10.072 2.657,-13.718 1.771,-3.667 4.125,-6.407 7.062,-8.219 2.959,-1.833 6.198,-2.75 9.719,-2.75 2.687,0 4.927,0.458 6.719,1.375 1.812,0.896 3.271,2.02 4.375,3.375 1.125,1.333 1.979,2.646 2.562,3.938 h 0.406 V 33 a 1,1 0 0 1 1,-1 h 11.282 a 1,1 0 0 1 1,1 v 62 a 1,1 0 0 1 -1,1 h -11.125 a 1,1 0 0 1 -1,-1 v -6.688 h -0.563 c -0.625,1.334 -1.51,2.657 -2.656,3.97 -1.125,1.29 -2.594,2.364 -4.406,3.218 -1.792,0.854 -3.979,1.281 -6.563,1.281 z m 4.219,-10.594 c 2.146,0 3.958,-0.583 5.437,-1.75 1.5,-1.187 2.646,-2.843 3.438,-4.968 0.812,-2.125 1.219,-4.615 1.219,-7.469 0,-2.854 -0.396,-5.333 -1.188,-7.438 -0.791,-2.104 -1.937,-3.729 -3.437,-4.874 -1.5,-1.146 -3.323,-1.72 -5.469,-1.72 -2.188,0 -4.031,0.594 -5.531,1.782 -1.5,1.188 -2.636,2.833 -3.407,4.938 -0.77,2.104 -1.156,4.541 -1.156,7.312 0,2.792 0.386,5.26 1.156,7.406 0.792,2.125 1.928,3.792 3.407,5 1.5,1.188 3.343,1.781 5.531,1.781 z m 50.634,10.751 c -4.937,0 -9.187,-1 -12.75,-3 -3.542,-2.021 -6.271,-4.876 -8.187,-8.563 -1.917,-3.708 -2.875,-8.094 -2.875,-13.156 0,-4.938 0.958,-9.271 2.875,-13 1.916,-3.73 4.614,-6.636 8.093,-8.719 3.5,-2.083 7.604,-3.125 12.313,-3.125 3.166,0 6.114,0.51 8.844,1.531 2.75,1 5.145,2.51 7.187,4.532 2.063,2.02 3.667,4.562 4.813,7.624 1.145,3.042 1.718,6.605 1.718,10.688 v 2.656 a 1,1 0 0 1 -1,1 H 296.49 v -8.25 h 28 c 0,-1.916 -0.417,-3.614 -1.25,-5.094 a 8.953,8.953 0 0 0 -3.469,-3.468 c -1.458,-0.854 -3.156,-1.282 -5.093,-1.282 -2.021,0 -3.813,0.47 -5.375,1.407 a 9.857,9.857 0 0 0 -3.625,3.718 c -0.875,1.542 -1.323,3.26 -1.344,5.157 v 7.844 c 0,2.374 0.437,4.427 1.312,6.156 0.896,1.729 2.157,3.062 3.782,4 1.625,0.937 3.552,1.406 5.781,1.406 1.479,0 2.833,-0.208 4.062,-0.625 1.229,-0.417 2.282,-1.042 3.157,-1.875 a 7.993,7.993 0 0 0 1.71,-2.382 c 0.188,-0.397 0.589,-0.66 1.028,-0.632 l 10.423,0.688 c 0.607,0.04 1.041,0.61 0.878,1.197 A 16.68,16.68 0 0 1 332.896,90 c -1.916,2.188 -4.396,3.896 -7.437,5.125 -3.021,1.208 -6.511,1.813 -10.469,1.813 z M 389.381,97 c -4.625,0 -8.614,-1.02 -11.968,-3.063 -3.334,-2.062 -5.907,-4.937 -7.719,-8.624 -1.792,-3.709 -2.688,-8.021 -2.688,-12.938 0,-4.917 0.896,-9.25 2.688,-13 1.812,-3.77 4.333,-6.708 7.562,-8.813 3.25,-2.124 7.042,-3.187 11.375,-3.187 2.5,0 4.969,0.417 7.407,1.25 2.437,0.833 4.656,2.188 6.656,4.063 2,1.854 3.594,4.312 4.781,7.374 1.188,3.063 1.781,6.834 1.781,11.313 V 73.5 a 1,1 0 0 1 -1,1 h -36 v -6.375 h 29.5 c 0,-2.708 -0.541,-5.125 -1.625,-7.25 -1.062,-2.125 -2.583,-3.802 -4.562,-5.031 C 393.61,54.614 391.298,54 388.631,54 c -2.937,0 -5.479,0.73 -7.625,2.188 a 14.39,14.39 0 0 0 -4.906,5.624 c -1.146,2.313 -1.719,4.792 -1.719,7.438 v 4.25 c 0,3.625 0.625,6.698 1.875,9.219 1.271,2.5 3.032,4.406 5.282,5.719 2.25,1.291 4.864,1.937 7.843,1.937 1.938,0 3.688,-0.27 5.25,-0.813 1.584,-0.562 2.948,-1.395 4.094,-2.5 0.946,-0.928 1.714,-2.041 2.305,-3.339 0.215,-0.472 0.735,-0.74 1.235,-0.6 l 5.252,1.474 c 0.542,0.152 0.854,0.723 0.654,1.25 a 15.785,15.785 0 0 1 -3.446,5.403 c -1.771,1.813 -3.958,3.23 -6.562,4.25 -2.605,1 -5.532,1.5 -8.782,1.5 z m 28.981,-49 c 0.355,0 0.683,0.188 0.863,0.494 l 11.21,19.131 11.21,-19.13 C 441.825,48.188 442.153,48 442.508,48 h 7.927 l -15.5,24 15.5,24 h -7.942 a 1,1 0 0 1 -0.851,-0.475 l -11.207,-18.15 -11.207,18.15 A 1,1 0 0 1 418.377,96 h -7.942 l 15.25,-24 -15.25,-24 z m 38.756,66 a 1,1 0 0 1 -1,-1 V 49 a 1,1 0 0 1 1,-1 h 5.125 a 1,1 0 0 1 1,1 v 6.625 h 0.875 c 0.542,-0.833 1.292,-1.896 2.25,-3.188 0.98,-1.312 2.375,-2.479 4.188,-3.5 1.833,-1.041 4.312,-1.562 7.437,-1.562 4.042,0 7.605,1.01 10.688,3.031 3.083,2.021 5.49,4.886 7.219,8.594 1.729,3.708 2.593,8.083 2.593,13.125 0,5.083 -0.864,9.49 -2.593,13.219 -1.729,3.708 -4.125,6.583 -7.188,8.625 -3.062,2.02 -6.594,3.031 -10.594,3.031 -3.083,0 -5.552,-0.51 -7.406,-1.531 -1.854,-1.042 -3.281,-2.219 -4.281,-3.531 -1,-1.334 -1.771,-2.438 -2.313,-3.313 h -0.625 V 113 a 1,1 0 0 1 -1,1 z m 6.25,-42 c 0,3.625 0.532,6.823 1.594,9.594 1.063,2.75 2.615,4.906 4.656,6.469 2.042,1.541 4.542,2.312 7.5,2.312 3.084,0 5.657,-0.813 7.719,-2.438 2.084,-1.645 3.646,-3.854 4.688,-6.624 1.062,-2.792 1.593,-5.896 1.593,-9.313 0,-3.375 -0.52,-6.417 -1.562,-9.125 -1.021,-2.73 -2.573,-4.885 -4.656,-6.469 C 482.837,54.802 480.243,54 477.118,54 c -3,0 -5.52,0.76 -7.562,2.281 -2.042,1.5 -3.583,3.604 -4.625,6.313 -1.042,2.687 -1.563,5.823 -1.563,9.406 z m 62.98,25 c -4.625,0 -8.614,-1.02 -11.968,-3.063 -3.334,-2.062 -5.907,-4.937 -7.719,-8.624 -1.792,-3.709 -2.688,-8.021 -2.688,-12.938 0,-4.917 0.896,-9.25 2.688,-13 1.812,-3.77 4.333,-6.708 7.562,-8.813 3.25,-2.124 7.042,-3.187 11.375,-3.187 2.5,0 4.969,0.417 7.407,1.25 2.437,0.833 4.656,2.188 6.656,4.063 2,1.854 3.594,4.312 4.781,7.374 1.188,3.063 1.781,6.834 1.781,11.313 V 73.5 a 1,1 0 0 1 -1,1 h -36 v -6.375 h 29.5 c 0,-2.708 -0.541,-5.125 -1.625,-7.25 -1.062,-2.125 -2.583,-3.802 -4.562,-5.031 -1.958,-1.23 -4.271,-1.844 -6.938,-1.844 -2.937,0 -5.479,0.73 -7.625,2.188 a 14.39,14.39 0 0 0 -4.906,5.624 c -1.146,2.313 -1.719,4.792 -1.719,7.438 v 4.25 c 0,3.625 0.625,6.698 1.875,9.219 1.271,2.5 3.032,4.406 5.282,5.719 2.25,1.291 4.864,1.937 7.843,1.937 1.938,0 3.688,-0.27 5.25,-0.813 1.584,-0.562 2.948,-1.395 4.094,-2.5 0.946,-0.928 1.714,-2.041 2.305,-3.339 0.215,-0.472 0.736,-0.74 1.236,-0.6 l 5.251,1.474 c 0.542,0.152 0.855,0.723 0.655,1.25 a 15.787,15.787 0 0 1 -3.447,5.403 c -1.771,1.813 -3.958,3.23 -6.562,4.25 -2.604,1 -5.532,1.5 -8.782,1.5 z m 27.694,-1 a 1,1 0 0 1 -1,-1 V 49 a 1,1 0 0 1 1,-1 h 5.125 a 1,1 0 0 1 1,1 v 6.25 h 0.5 c 0.875,-2.375 2.459,-4.302 4.75,-5.781 2.292,-1.48 4.875,-2.219 7.75,-2.219 a 81.78,81.78 0 0 1 2.972,0.064 0.954,0.954 0 0 1 0.903,0.966 v 5.314 c 0,0.65 -0.618,1.159 -1.262,1.065 l -0.457,-0.065 a 16.916,16.916 0 0 0 -2.781,-0.219 c -2.333,0 -4.416,0.49 -6.25,1.469 -1.812,0.958 -3.25,2.291 -4.312,4 -1.042,1.687 -1.563,3.614 -1.563,5.781 V 95 a 1,1 0 0 1 -1,1 z m 51.177,-48 a 1,1 0 0 1 1,1 v 4.25 a 1,1 0 0 1 -1,1 h -22.875 a 1,1 0 0 1 -1,-1 V 49 a 1,1 0 0 1 1,-1 z M 588.594,37.5 a 1,1 0 0 1 1,-1 h 5.375 a 1,1 0 0 1 1,1 v 44.75 c 0,2.083 0.302,3.646 0.907,4.688 0.625,1.02 1.416,1.708 2.375,2.062 0.979,0.333 2.01,0.5 3.093,0.5 0.813,0 1.48,-0.042 2,-0.125 l 0.294,-0.059 a 1,1 0 0 1 1.172,0.76 l 1.092,4.823 c 0.11,0.488 -0.157,0.982 -0.639,1.114 -0.365,0.1 -0.786,0.2 -1.262,0.3 -0.896,0.208 -2.032,0.312 -3.407,0.312 -2.083,0 -4.125,-0.448 -6.125,-1.344 -1.979,-0.896 -3.625,-2.26 -4.937,-4.094 -1.292,-1.833 -1.938,-4.145 -1.938,-6.937 z"
       id="path3" />
  </g>
  <defs
     id="defs4">
    <clipPath
       id="a">
      <path
         fill="#ffffff"
         d="M 0,0 H 636 V 144 H 0 Z"
         id="path4" />
    </clipPath>
  </defs>
  <path
     d="m 257.17956,129.07805 q -0.138,0.41016 -0.59587,1.09375 -0.3969,0.63803 -0.97661,1.41276 -0.56432,0.72917 -1.2807,1.50391 -0.67084,0.77474 -1.31098,1.45833 -1.11249,1.13933 -2.84892,2.64323 -1.73645,1.50391 -3.79235,3.14453 -2.05588,1.64063 -4.29406,3.28126 -2.23817,1.64062 -4.35411,3.05338 -1.68961,1.09375 -3.91161,2.41537 -2.22199,1.32161 -4.61051,2.46094 -2.38854,1.13932 -4.74554,1.91406 -2.2961,0.72916 -4.21017,0.72916 -1.77735,0 -3.23355,-0.68359 -1.3953,-0.72917 -2.19431,-2.6888 -0.75347,-1.95964 -0.66659,-5.46875 0.0869,-3.50912 1.33477,-9.11459 0.13836,-0.54687 0.43071,-1.6862 0.35302,-1.18489 0.64536,-2.32421 0.35302,-1.1849 0.55336,-2.05079 0.20006,-0.86588 0.10908,-0.86588 -0.36457,0 -1.59846,1.09375 -1.18828,1.09375 -2.98649,2.91667 -1.7373,1.77734 -3.9018,4.14713 -2.14914,2.32422 -4.45079,4.83073 -2.89622,3.19011 -5.39547,5.74219 -2.43835,2.50651 -4.47932,4.23828 -1.98008,1.6862 -3.65394,2.59766 -1.62825,0.91146 -2.99545,0.91146 -2.09634,0 -3.15731,-0.77474 -1.04563,-0.82032 -1.26837,-2.46094 -0.20744,-1.6862 0.34753,-4.28386 0.57027,-2.64322 1.69041,-6.24349 1.88731,-6.01562 2.7484,-9.38802 0.90674,-3.37239 0.45102,-3.37239 -0.54687,0 -2.29821,1.41276 -1.75136,1.41276 -4.35668,3.87369 -2.55974,2.46094 -5.77538,5.78776 -3.17009,3.32683 -6.64553,7.15495 -0.8842,1.00261 -2.1036,2.32422 -1.21937,1.32162 -2.49968,2.68881 -1.28028,1.36718 -2.52992,2.64322 -1.20404,1.27605 -2.14872,2.18751 -1.21897,1.18489 -2.61853,1.82291 -1.38422,0.59245 -2.70582,0.59245 -1.8685,0 -2.92946,-0.77474 -1.04564,-0.82031 -1.40595,-2.1875 -0.36035,-1.36719 -0.14185,-3.23568 0.26407,-1.86849 0.96938,-3.96484 0.62864,-1.86849 1.22589,-3.3724 0.59695,-1.5039 1.28547,-3.00781 0.70356,-1.54948 1.49877,-3.23568 0.84083,-1.6862 1.89574,-3.8737 0.91748,-1.91406 1.75946,-4.01041 0.85724,-2.14193 1.66879,-4.14714 0.82658,-2.05078 1.59164,-3.78255 0.76489,-1.73177 1.46726,-2.8711 0.48854,-0.77473 1.14443,-1.64062 0.67123,-0.91146 1.60015,-1.64062 0.94426,-0.77475 2.16109,-1.27605 1.23217,-0.54687 2.78164,-0.54687 1.41278,0 2.09465,0.54687 0.69724,0.5013 0.84631,1.41276 0.1644,0.86589 -0.0975,2.05078 -0.20108,1.13933 -0.6304,2.41537 -0.36798,1.09375 -1.31565,2.96224 -0.90215,1.86849 -2.12446,4.14714 -1.16145,2.23307 -2.53629,4.69401 -1.35951,2.41536 -2.61212,4.64843 -1.20703,2.23308 -2.18494,4.05599 -0.96255,1.77735 -1.43659,2.77995 0.1526,-0.1823 0.80795,-0.91146 0.70108,-0.72916 1.64615,-1.77734 0.99068,-1.04818 2.07293,-2.23307 1.08225,-1.1849 2.02735,-2.23308 0.99068,-1.04817 1.70706,-1.82291 0.71638,-0.77474 0.86886,-0.95704 1.28031,-1.36718 2.94137,-3.05338 1.67639,-1.73177 3.44394,-3.46354 1.78287,-1.77735 3.45884,-3.3724 1.72152,-1.59505 3.04655,-2.6888 2.83274,-2.32422 5.51004,-3.50912 2.72287,-1.18489 5.32055,-1.18489 2.77994,0 4.00444,1.91406 1.22452,1.91407 0.81992,5.01302 -0.15545,1.13933 -0.6014,2.8711 -0.44603,1.73177 -1.04437,3.64583 -0.53738,1.86849 -1.13601,3.78255 -0.59835,1.91407 -1.10433,3.41797 -0.46034,1.50391 -0.7367,2.46094 -0.27635,0.95703 -0.13974,0.95703 0.41017,0 1.56821,-1.13932 1.15807,-1.13933 2.69774,-2.8711 1.53967,-1.73177 3.26251,-3.73698 1.72281,-2.00521 3.24715,-3.6914 2.49968,-2.68881 5.10499,-5.14974 2.62065,-2.50651 4.98107,-4.375 2.42132,-1.91407 4.38435,-3.00782 1.97837,-1.13932 3.20884,-1.13932 0.8659,0 1.71602,0.1823 0.85011,0.1823 1.54777,0.54688 0.75855,0.31901 1.27349,0.82031 0.53027,0.45573 0.69551,1.04818 0.36077,1.23047 0.2347,2.6888 -0.12605,1.45833 -0.58733,3.23567 -0.41574,1.77735 -1.09074,3.91928 -0.62937,2.14192 -1.23004,4.73958 -1.09327,4.73958 -1.04088,7.42839 0.0524,2.6888 1.82973,2.6888 0.77475,0 2.18922,-0.54688 1.47534,-0.59244 3.22502,-1.45833 1.81055,-0.91146 3.72801,-2.00521 1.96306,-1.09375 3.69821,-2.1875 1.90258,-1.18489 3.68373,-2.41536 1.79652,-1.27605 3.56277,-2.59766 1.81184,-1.32161 3.65436,-2.73437 1.90339,-1.45834 3.98951,-3.05339 1.27904,-0.95703 2.50951,-0.95703 1.45832,0 0.75302,2.09635 z m 21.62837,-3.73697 q 0.138,-0.41016 0.13975,-0.95704 0.0474,-0.54687 -0.0729,-1.0026 -0.0592,-0.5013 -0.27089,-0.82031 -0.19633,-0.36459 -0.46978,-0.36459 -3.00779,0 -6.0663,1.64063 -2.99759,1.59505 -6.62168,4.375 -2.00988,1.50391 -4.60028,4.05599 -2.54484,2.55208 -4.96915,5.42318 -2.42428,2.87109 -4.34727,5.74218 -1.92301,2.8711 -2.65899,5.0586 -0.18399,0.54687 -0.32235,1.09375 -0.0774,0.5013 -0.0331,0.91146 0.0899,0.41015 0.36245,0.68359 0.27259,0.27342 0.86503,0.27342 1.73178,0 4.28726,-1.09375 2.57081,-1.13932 5.35629,-2.91666 2.84638,-1.82292 5.67915,-4.14714 2.89364,-2.36979 5.13439,-4.83073 2.74373,-3.00781 5.07813,-6.28906 2.33444,-3.28125 3.53039,-6.83594 z m 39.84653,4.694 q -0.18399,0.54688 -0.67252,1.32162 -0.42757,0.72917 -1.00728,1.50391 -0.56435,0.72916 -1.21982,1.45833 -0.59457,0.68359 -1.12783,1.18489 -0.33521,0.31902 -1.0358,0.91146 -0.68529,0.54688 -1.56864,1.27605 -0.86802,0.68359 -1.96433,1.5039 -1.05071,0.82031 -2.14703,1.64063 -3.47119,2.46093 -7.01822,4.8763 -3.4861,2.36979 -7.07699,4.23828 -3.57552,1.82292 -7.19454,2.96224 -3.61899,1.13932 -7.26483,1.13932 -1.54947,0 -2.91453,-0.68359 -1.36505,-0.68359 -2.3336,-1.86849 -0.96855,-1.1849 -1.46474,-2.82552 -0.43529,-1.6862 -0.20146,-3.60026 -1.28031,1.36719 -3.13855,2.96224 -1.84294,1.54948 -3.9593,3.09896 -2.07081,1.54948 -4.23232,2.96224 -2.14618,1.36719 -3.94183,2.36979 -1.23258,0.68359 -2.93626,1.41276 -1.65807,0.72917 -3.46777,1.36719 -1.7944,0.59245 -3.57302,1.0026 -1.71771,0.36458 -3.08491,0.36458 -2.18749,0 -3.41413,-1.23046 -1.21131,-1.27605 -1.69174,-3.09896 -0.43487,-1.82292 -0.29177,-3.8737 0.18868,-2.05078 0.74066,-3.69141 1.01196,-3.00781 2.92046,-6.10677 1.96941,-3.14453 4.33323,-6.10677 2.40941,-2.96224 5.00024,-5.65104 2.6364,-2.6888 4.98233,-4.78516 2.46775,-2.1875 5.60373,-4.32943 3.15134,-2.18749 6.3619,-3.87369 3.22587,-1.73177 6.13059,-2.77995 2.95032,-1.04818 4.95552,-1.04818 1.09375,0 2.2024,0.0911 1.16957,0.0456 2.26289,0.1823 1.09332,0.13673 2.0495,0.41015 0.9562,0.27346 1.63851,0.6836 0.42421,0.36458 0.74025,1.32161 0.37694,0.91146 0.55583,2.00521 0.23979,1.04818 0.29729,2.09636 0.0575,1.04818 -0.14183,1.64062 -0.42932,1.27604 -1.43745,3.05339 -0.94721,1.73177 -2.09249,3.64583 -1.0997,1.91406 -2.18451,3.91927 -1.08479,2.00521 -1.6981,3.82813 -0.42932,1.27604 -0.5094,2.59766 -0.08,1.32161 0.23554,2.41536 0.33094,1.04818 1.058,1.73177 0.72704,0.68359 1.91193,0.68359 2.6888,0 5.66934,-1.0026 2.98057,-1.0026 6.20643,-2.73437 3.24123,-1.77735 6.68175,-4.14714 3.45585,-2.41537 7.07997,-5.19531 0.091,0 0.95914,-0.6836 0.86802,-0.68359 2.00991,-1.5039 1.18743,-0.82032 2.37445,-1.50391 1.23261,-0.68359 1.96176,-0.68359 1.32162,0 1.47112,0.77474 0.14952,0.77473 -0.38713,2.36979 z m 41.26603,-2.36979 q -0.41398,1.23047 -2.13637,3.09896 -1.70706,1.82292 -4.08323,3.8737 -2.3306,2.05078 -5.102,4.19271 -2.75611,2.09635 -5.2988,3.96484 -1.50731,1.09375 -4.39972,3.05339 -2.87704,1.91406 -6.43896,4.23828 -3.51634,2.32422 -7.36746,4.83073 -3.83576,2.46094 -7.24522,4.60286 -3.36386,2.14193 -5.95128,3.73699 -2.58744,1.59505 -3.65264,2.18749 -3.45416,1.8685 -6.25243,2.8711 -2.75269,1.0026 -4.66674,1.0026 -1.59507,0 -2.58149,-0.31901 -1.00176,-0.27342 -1.51669,-0.77474 -0.53025,-0.45572 -0.63461,-1.09375 -0.11968,-0.59245 0.095,-1.23047 0.53665,-1.59505 1.55842,-2.87109 1.00643,-1.23047 2.60489,-2.32422 1.644,-1.09375 3.8954,-2.09635 2.31227,-1.04818 5.32351,-2.14193 1.96176,-0.68359 3.54359,-1.32162 1.62743,-0.63802 2.87535,-1.36718 1.30883,-0.77474 2.17769,-1.73177 0.86886,-0.95703 1.32885,-2.32422 0.10733,-0.31901 -0.0571,-1.1849 -0.11883,-0.86588 -0.41911,-2.00521 -0.30028,-1.13932 -0.7215,-2.46093 -0.36035,-1.36719 -0.75132,-2.64324 -0.37568,-1.32161 -0.72154,-2.46093 -0.34582,-1.13932 -0.49534,-1.91407 -0.70318,-3.46354 0.5081,-7.0638 0.52132,-1.54948 1.34681,-3.1901 0.82549,-1.64063 2.03076,-3.32682 1.29776,-2.09636 3.294,-4.10157 2.04184,-2.00521 4.20377,-3.55469 2.17727,-1.59505 4.13988,-2.55208 2.00818,-0.95703 3.23866,-0.95703 1.64062,0 2.58146,0.31901 0.95621,0.27342 1.28842,0.91146 0.39313,0.59245 0.29899,1.54948 -0.0788,0.91146 -0.52343,2.23307 -0.36799,1.09375 -1.26752,2.14193 -0.89952,1.04818 -1.98093,1.95963 -1.0814,0.91146 -2.20793,1.6862 -1.12656,0.77474 -1.96388,1.36719 -1.24837,0.86589 -2.3749,1.64062 -1.11123,0.72917 -1.79652,1.27605 -0.92033,2.87109 -0.36582,5.28645 0.28492,1.1849 0.7049,2.91667 0.46553,1.73177 0.90039,3.55469 0.49577,1.77734 0.90081,3.41797 0.40507,1.64062 0.62996,2.59766 0.79093,-0.31902 2.35827,-1.1849 1.62828,-0.91146 3.77404,-2.14193 2.16109,-1.27604 4.64202,-2.82552 2.52653,-1.54948 5.08371,-3.1901 2.5572,-1.64063 4.96235,-3.23568 2.42044,-1.64063 4.41502,-3.09896 1.69,-1.23047 2.80165,-2.09635 1.17253,-0.91146 1.94897,-1.45834 0.83735,-0.59244 1.3851,-0.86588 0.56305,-0.31901 1.10992,-0.31901 0.59245,0 0.8037,0.45573 0.27215,0.41015 0.31604,0.95703 0.0592,0.5013 -0.003,0.95703 -0.0621,0.45573 -0.0927,0.54687 z m -14.73443,19.27735 q 0.7053,-2.09636 1.63849,-4.19271 0.99414,-2.14193 2.04863,-4.19271 1.11546,-2.09635 2.23049,-4.05599 1.11506,-1.95963 2.07761,-3.73698 1.2986,-2.36979 2.33739,-4.23828 1.03882,-1.86849 1.66662,-3.46354 -0.7296,0.13672 -1.64149,0.27342 -0.85096,0.0911 -1.76287,0.22788 -0.89653,0.0911 -1.73219,0.13672 -0.83563,0.0456 -1.38251,0.0456 -1.41277,0 -2.39961,-0.1823 -0.92593,-0.22788 -1.42554,-0.77474 -0.48427,-0.59245 -0.46595,-1.59505 0.0336,-1.04818 0.57027,-2.64323 0.33732,-1.00261 1.02304,-1.6862 0.73132,-0.68359 1.64403,-1.09375 0.95832,-0.41016 1.96134,-0.54688 1.06393,-0.1823 2.02099,-0.1823 0.36457,0 1.44341,-0.0911 1.09417,-0.13672 2.32506,-0.27342 1.2309,-0.13673 2.41621,-0.27342 1.18533,-0.13673 1.74753,-0.1823 0.36461,0 0.8676,-0.54688 0.54856,-0.54687 1.06734,-1.27604 0.57965,-0.77474 1.06819,-1.54948 0.50386,-0.82031 0.77898,-1.36719 0.64186,-1.23046 1.64998,-3.00781 1.0537,-1.77734 2.18367,-3.64583 1.17552,-1.86849 2.28971,-3.554688 1.17509,-1.731767 2.05928,-2.734367 1.20447,-1.412755 2.31569,-2.141925 1.1112,-0.72917 2.84297,-0.72917 2.41537,0 3.1258,1.13932 0.756,1.139325 -0.0413,3.509112 -0.36799,1.09375 -1.45193,2.825518 -1.03837,1.73177 -2.30546,3.73698 -1.25176,1.95964 -2.4886,4.01042 -1.17594,2.00521 -1.75817,3.60026 0.91145,0 2.70456,-0.1823 1.7931,-0.1823 3.78384,-0.41016 2.00603,-0.27342 3.82981,-0.54687 1.86935,-0.27346 2.84215,-0.45573 2.05204,-0.41016 3.11597,-0.59245 1.12487,-0.22788 2.00649,-0.41016 0.92723,-0.1823 1.96092,-0.41016 1.09459,-0.27342 3.0406,-0.77473 0.4996,0.54687 0.80242,0.86588 0.30282,0.31901 0.40846,0.54688 0.16654,0.1823 0.15085,0.36458 0.0296,0.1823 -0.047,0.41016 -0.59798,1.77734 -2.74458,3.28125 -2.13127,1.45833 -5.02108,2.59765 -2.88985,1.13932 -6.12808,1.95964 -3.17733,0.77474 -5.9283,1.23047 -2.0214,0.31901 -3.64754,0.54687 -1.58056,0.22788 -2.79654,0.45573 -1.20066,0.1823 -2.02183,0.45573 -0.80584,0.22788 -1.29307,0.59245 -1.28243,2.05078 -3.02314,4.92187 -1.67978,2.82552 -3.42134,5.97006 -1.74156,3.14453 -3.2859,6.38021 -1.52902,3.1901 -2.46432,5.97005 -1.05796,3.14453 -0.34883,4.69401 0.70916,1.54948 2.94223,1.54948 2.0508,0 4.10241,-0.27343 2.11256,-0.319 4.51513,-1.09375 2.46349,-0.82031 5.33884,-2.18749 2.92093,-1.36719 6.64936,-3.50912 1.03499,-0.63802 2.16152,-1.41276 1.17213,-0.77474 2.31357,-1.45833 1.1568,-0.72917 2.26715,-1.1849 1.12568,-0.5013 2.12828,-0.5013 0.91147,0 1.25944,0.45573 0.40888,0.41015 0.10223,1.32161 -0.22999,0.6836 -1.02304,1.6862 -0.77771,0.95703 -1.96602,2.05078 -1.18831,1.09375 -2.72629,2.27865 -1.47706,1.13932 -3.19689,2.1875 -3.34855,2.09635 -6.90917,4.01042 -3.49974,1.86848 -6.98287,3.28124 -3.43756,1.41276 -6.72138,2.23308 -3.28378,0.82031 -6.24602,0.82031 -3.64585,0 -5.82993,-1.09375 -2.16878,-1.13932 -3.18076,-3.00781 -0.9664,-1.86849 -0.94385,-4.23828 0.0835,-2.41537 0.92679,-4.92188 z m 68.19571,-25.52084 q 0.67464,-2.0052 0.31261,-2.82552 -0.31643,-0.82031 -1.09118,-0.82031 -0.6836,0 -1.87104,0.82031 -1.18747,0.82032 -2.66538,2.23308 -1.417,1.36718 -3.04824,3.23567 -1.57036,1.82292 -3.12621,3.8737 -1.5103,2.05078 -2.83872,4.23828 -1.26751,2.14193 -2.17,4.14714 1.68958,-1.09375 3.02907,-1.95964 1.40041,-0.91146 2.69478,-1.91406 1.27901,-0.95703 2.92389,-2.32422 1.70579,-1.41276 3.30552,-2.91667 1.59973,-1.5039 2.83488,-3.00781 1.2807,-1.50391 1.71002,-2.77995 z m 33.70865,4.92188 q -0.12266,0.36458 -0.65683,1.13932 -0.53416,0.77474 -1.52478,1.82292 -2.72798,2.82552 -6.53607,6.15234 -3.76251,3.32683 -8.11747,6.65365 -4.29408,3.28125 -9.02809,6.38021 -4.67315,3.05339 -9.25299,5.42318 -4.5343,2.36979 -8.76191,3.82812 -4.21232,1.41276 -7.58471,1.41276 -4.28384,0 -7.07531,-1.18489 -2.79144,-1.1849 -4.13648,-3.41797 -1.32974,-2.27865 -1.28929,-5.51433 0.0558,-3.28125 1.45107,-7.42838 1.05796,-3.14454 2.69431,-6.65365 1.68192,-3.50911 4.16925,-7.10937 2.50267,-3.64584 5.87121,-7.29167 3.42945,-3.69141 7.9518,-7.10938 3.48698,-2.64323 6.95475,-4.01042 3.4678,-1.36718 6.20217,-1.36718 0.50133,0 1.19938,0.22787 0.71342,0.1823 1.36548,0.54688 0.65209,0.36458 1.21261,0.86588 0.56051,0.50131 0.81691,1.09375 0.82968,1.86849 0.99154,3.55469 0.17719,1.64063 -0.52811,3.73698 -1.10396,3.28125 -2.90474,5.92448 -1.80074,2.64323 -4.17776,4.96745 -2.31614,2.27865 -5.1787,4.42057 -2.86256,2.14193 -6.10548,4.46615 -1.97921,1.41276 -4.77959,3.09896 -2.78505,1.64062 -5.99646,3.60026 -0.11071,1.41276 0.0835,2.46094 0.20955,1.0026 0.79986,1.68619 0.59033,0.6836 1.60699,1.04818 1.07757,0.31901 2.67262,0.31901 2.14192,0 4.80262,-0.72916 2.70624,-0.72917 5.5505,-1.86849 2.47925,-1.00261 5.0816,-2.50651 2.61766,-1.54948 5.31156,-3.19011 1.65894,-1.0026 4.33836,-2.87109 2.74035,-1.91407 5.57224,-3.96485 1.9183,-1.36718 3.80597,-2.64323 1.90297,-1.32161 4.08024,-2.91666 l 3.21268,-2.3698 q 3.36385,-2.14192 5.0045,-2.14192 0.86588,0 0.92509,0.5013 0.0592,0.5013 -0.0941,0.95703 z m 37.8059,-3.46354 q -0.62864,1.86849 -2.22752,3.09896 -1.58352,1.18489 -3.36087,1.18489 -1.23048,0 -2.07975,-0.45573 -0.80372,-0.45573 -1.44002,-1.0026 -0.621,-0.59245 -1.19685,-1.04818 -0.53024,-0.45573 -1.25942,-0.45573 -0.82032,0 -1.96134,0.54688 -1.14101,0.54687 -2.51117,1.5039 -1.35486,0.91146 -2.90817,2.14193 -1.50773,1.23047 -3.06146,2.59766 -1.09671,0.95703 -2.51374,2.32422 -1.40168,1.32161 -2.84934,2.77994 -1.4477,1.45834 -2.81956,2.96224 -1.37188,1.50391 -2.43919,2.77995 -0.93022,1.13932 -2.11977,2.64323 -1.14401,1.50391 -2.25777,3.05339 -1.06819,1.54948 -1.99923,2.96224 -0.93107,1.41276 -1.38975,2.36979 -0.87149,1.77734 -1.65083,3.28125 -0.77949,1.5039 -1.64872,2.59766 -0.80838,1.04817 -1.82803,1.64062 -0.97405,0.59245 -2.34124,0.59245 -2.46095,0 -3.33877,-1.04818 -0.87779,-1.04817 -0.87269,-2.6888 0.0506,-1.64063 0.61884,-3.60026 0.56804,-1.95964 0.99911,-3.78255 0.26204,-1.1849 0.56943,-2.3698 0.30738,-1.18489 0.64572,-2.46093 0.39902,-1.32162 0.84403,-2.77995 0.46035,-1.50391 1.05833,-3.28125 0.78197,-2.32422 1.93017,-5.19531 1.14821,-2.8711 2.26542,-5.51433 1.16281,-2.64323 2.12614,-4.69401 1.009,-2.05078 1.46684,-2.73437 0.86971,-1.23047 2.01245,-2.32422 1.15807,-1.13933 2.3455,-1.95964 1.24835,-0.86588 2.41963,-1.36719 1.21684,-0.5013 2.17386,-0.5013 0.86587,0 1.6551,0.22788 0.83478,0.22787 1.33439,0.77474 0.54518,0.54687 0.69425,1.45833 0.1644,0.86589 -0.28025,2.1875 -0.10733,0.31901 -0.58053,1.04818 -0.45786,0.68359 -1.26709,2.00521 -0.88549,1.41276 -2.01543,3.28125 -1.12994,1.86849 -2.24497,3.82812 -1.06946,1.95964 -2.03246,3.8737 -0.96298,1.91406 -1.51453,3.41797 0.39653,-0.5013 1.37227,-1.64062 0.9911,-1.1849 2.05844,-2.46094 1.12825,-1.32162 2.16493,-2.50651 1.05201,-1.23047 1.555,-1.77735 2.07293,-2.23307 4.648,-4.73958 2.57508,-2.50651 5.46788,-4.60287 2.95371,-2.14192 6.19364,-3.50911 3.25526,-1.41276 6.5821,-1.41276 2.55207,0 4.11434,0.77474 1.62317,0.72916 2.39406,1.95963 0.77091,1.23047 0.78114,2.82552 0.0711,1.54948 -0.48084,3.19011 z"
     id="text4"
     style="font-weight:bold;font-size:31.9062px;font-family:'Segoe Script';-inkscape-font-specification:'Segoe Script, Bold';white-space:pre;inline-size:122.147;fill:#ff2a2a;stroke-width:2.92524"
     inkscape:label="text4"
     aria-label="master" />
</svg>
