<svg xmlns="http://www.w3.org/2000/svg" width="636" height="144" fill="none"><g clip-path="url(#a)"><path fill="#ffaf5b" fill-rule="evenodd" d="M32.854 27.823c-.899.87-.918 2.606-.957 6.078l-.293 26.26c-.039 3.506-.058 5.26.829 6.151a3 3 0 0 0 1.36.785c1.215.321 2.724-.573 5.74-2.363l26.966-16c.948-.562 1.421-.843 1.527-1.236a.999.999 0 0 0 .003-.508c-.1-.394-.57-.681-1.511-1.255L39.882 29.48c-2.964-1.81-4.446-2.714-5.661-2.414a3 3 0 0 0-1.367.758Zm78.254 87.681c.892-.881.892-2.623.892-6.108V86.54c0-5.79 0-8.684-1.032-11.221a14.003 14.003 0 0 0-1.772-3.13c-1.644-2.19-4.127-3.68-9.091-6.658L72 48.668v46l32.049 19.23c2.988 1.793 4.483 2.689 5.697 2.377a3.002 3.002 0 0 0 1.362-.771Z" clip-rule="evenodd"/><path fill="#c04788" fill-rule="evenodd" d="M112 58.797c0 5.789 0 8.684-1.032 11.22-.38.933-.859 1.822-1.428 2.651a13.746 13.746 0 0 0-.344-.479c-1.644-2.19-4.127-3.68-9.091-6.658L72 48.668l32.049-19.23c2.988-1.792 4.483-2.689 5.697-2.377.514.132.984.398 1.362.771.892.881.892 2.624.892 6.109v24.856ZM33.032 75.319C32 77.856 32 80.751 32 86.539v22.857c0 3.485 0 5.227.892 6.108a3 3 0 0 0 1.362.771c1.214.312 2.709-.584 5.697-2.377L72 94.668v-46L43.895 65.531C38.93 68.51 36.448 70 34.805 72.19a13.999 13.999 0 0 0-1.773 3.13Z" clip-rule="evenodd"/><path fill="#c04788" d="M166 96.938c-4.917 0-9.146-1.042-12.688-3.126-3.52-2.104-6.229-5.02-8.124-8.75-1.876-3.729-2.813-8.02-2.813-12.874 0-4.917.948-9.23 2.844-12.938 1.916-3.73 4.635-6.635 8.156-8.719 3.521-2.104 7.708-3.156 12.563-3.156 4.187 0 7.854.76 11 2.281 3.145 1.521 5.635 3.657 7.468 6.407 1.659 2.487 2.644 5.366 2.955 8.638a.966.966 0 0 1-.975 1.049h-10.648c-.496 0-.912-.365-1.017-.85-.436-2.005-1.322-3.65-2.659-4.931-1.5-1.48-3.468-2.219-5.906-2.219-2.062 0-3.864.563-5.406 1.688-1.521 1.104-2.708 2.718-3.562 4.843-.855 2.125-1.282 4.698-1.282 7.719 0 3.063.417 5.667 1.25 7.813.854 2.145 2.052 3.78 3.594 4.906 1.542 1.125 3.344 1.687 5.406 1.687 1.521 0 2.886-.312 4.094-.937 1.229-.625 2.24-1.531 3.031-2.719.673-1 1.153-2.166 1.44-3.495.105-.484.521-.849 1.017-.849h10.641a.967.967 0 0 1 .975 1.055c-.326 3.235-1.299 6.112-2.916 8.633-1.771 2.77-4.219 4.937-7.344 6.5-3.125 1.562-6.823 2.344-11.094 2.344ZM213.688 96.938c-4.854 0-9.052-1.032-12.593-3.094-3.521-2.084-6.24-4.98-8.157-8.688-1.916-3.729-2.875-8.052-2.875-12.969 0-4.958.959-9.291 2.875-13 1.917-3.729 4.636-6.624 8.157-8.687 3.541-2.083 7.739-3.125 12.593-3.125 4.855 0 9.042 1.042 12.563 3.125 3.542 2.063 6.271 4.958 8.187 8.688 1.917 3.708 2.875 8.041 2.875 13 0 4.916-.958 9.24-2.875 12.968-1.916 3.709-4.645 6.604-8.187 8.688-3.521 2.062-7.708 3.094-12.563 3.094Zm.063-10.313c2.208 0 4.052-.625 5.531-1.875 1.479-1.27 2.594-3 3.344-5.188.771-2.187 1.156-4.677 1.156-7.468 0-2.792-.385-5.281-1.156-7.469-.75-2.188-1.865-3.917-3.344-5.188-1.479-1.27-3.323-1.906-5.531-1.906-2.229 0-4.104.636-5.625 1.907-1.5 1.27-2.635 3-3.406 5.187-.75 2.188-1.125 4.677-1.125 7.469 0 2.791.375 5.281 1.125 7.469.771 2.187 1.906 3.916 3.406 5.187 1.521 1.25 3.396 1.875 5.625 1.875ZM260.137 96.781c-3.646 0-6.948-.937-9.906-2.812-2.938-1.896-5.271-4.677-7-8.344-1.708-3.688-2.563-8.208-2.563-13.563 0-5.5.886-10.072 2.657-13.718 1.771-3.667 4.125-6.407 7.062-8.219 2.959-1.833 6.198-2.75 9.719-2.75 2.687 0 4.927.458 6.719 1.375 1.812.896 3.271 2.02 4.375 3.375 1.125 1.333 1.979 2.646 2.562 3.938h.406V33a1 1 0 0 1 1-1h11.282a1 1 0 0 1 1 1v62a1 1 0 0 1-1 1h-11.125a1 1 0 0 1-1-1v-6.688h-.563c-.625 1.334-1.51 2.657-2.656 3.97-1.125 1.29-2.594 2.364-4.406 3.218-1.792.854-3.979 1.281-6.563 1.281Zm4.219-10.594c2.146 0 3.958-.583 5.437-1.75 1.5-1.187 2.646-2.843 3.438-4.968.812-2.125 1.219-4.615 1.219-7.469s-.396-5.333-1.188-7.438c-.791-2.104-1.937-3.729-3.437-4.874-1.5-1.146-3.323-1.72-5.469-1.72-2.188 0-4.031.594-5.531 1.782-1.5 1.188-2.636 2.833-3.407 4.938-.77 2.104-1.156 4.541-1.156 7.312 0 2.792.386 5.26 1.156 7.406.792 2.125 1.928 3.792 3.407 5 1.5 1.188 3.343 1.781 5.531 1.781ZM314.99 96.938c-4.937 0-9.187-1-12.75-3-3.542-2.021-6.271-4.876-8.187-8.563-1.917-3.708-2.875-8.094-2.875-13.156 0-4.938.958-9.271 2.875-13 1.916-3.73 4.614-6.636 8.093-8.719 3.5-2.083 7.604-3.125 12.313-3.125 3.166 0 6.114.51 8.844 1.531 2.75 1 5.145 2.51 7.187 4.532 2.063 2.02 3.667 4.562 4.813 7.624 1.145 3.042 1.718 6.605 1.718 10.688v2.656a1 1 0 0 1-1 1H296.49v-8.25h28c0-1.916-.417-3.614-1.25-5.094a8.953 8.953 0 0 0-3.469-3.468c-1.458-.854-3.156-1.282-5.093-1.282-2.021 0-3.813.47-5.375 1.407a9.857 9.857 0 0 0-3.625 3.718c-.875 1.542-1.323 3.26-1.344 5.157v7.844c0 2.374.437 4.427 1.312 6.156.896 1.729 2.157 3.062 3.782 4 1.625.937 3.552 1.406 5.781 1.406 1.479 0 2.833-.208 4.062-.625 1.229-.417 2.282-1.042 3.157-1.875a7.993 7.993 0 0 0 1.71-2.382c.188-.397.589-.66 1.028-.632l10.423.688c.607.04 1.041.61.878 1.197A16.68 16.68 0 0 1 332.896 90c-1.916 2.188-4.396 3.896-7.437 5.125-3.021 1.208-6.511 1.813-10.469 1.813ZM389.381 97c-4.625 0-8.614-1.02-11.968-3.063-3.334-2.062-5.907-4.937-7.719-8.624-1.792-3.709-2.688-8.021-2.688-12.938s.896-9.25 2.688-13c1.812-3.77 4.333-6.708 7.562-8.813 3.25-2.124 7.042-3.187 11.375-3.187 2.5 0 4.969.417 7.407 1.25 2.437.833 4.656 2.188 6.656 4.063 2 1.854 3.594 4.312 4.781 7.374 1.188 3.063 1.781 6.834 1.781 11.313V73.5a1 1 0 0 1-1 1h-36v-6.375h29.5c0-2.708-.541-5.125-1.625-7.25-1.062-2.125-2.583-3.802-4.562-5.031-1.959-1.23-4.271-1.844-6.938-1.844-2.937 0-5.479.73-7.625 2.188a14.39 14.39 0 0 0-4.906 5.624c-1.146 2.313-1.719 4.792-1.719 7.438v4.25c0 3.625.625 6.698 1.875 9.219 1.271 2.5 3.032 4.406 5.282 5.719 2.25 1.291 4.864 1.937 7.843 1.937 1.938 0 3.688-.27 5.25-.813 1.584-.562 2.948-1.395 4.094-2.5.946-.928 1.714-2.041 2.305-3.339.215-.472.735-.74 1.235-.6l5.252 1.474c.542.152.854.723.654 1.25a15.785 15.785 0 0 1-3.446 5.403c-1.771 1.813-3.958 3.23-6.562 4.25-2.605 1-5.532 1.5-8.782 1.5ZM418.362 48c.355 0 .683.188.863.494l11.21 19.131 11.21-19.13c.18-.307.508-.495.863-.495h7.927l-15.5 24 15.5 24h-7.942a1 1 0 0 1-.851-.475l-11.207-18.15-11.207 18.15a1 1 0 0 1-.851.475h-7.942l15.25-24-15.25-24h7.927ZM457.118 114a1 1 0 0 1-1-1V49a1 1 0 0 1 1-1h5.125a1 1 0 0 1 1 1v6.625h.875c.542-.833 1.292-1.896 2.25-3.188.98-1.312 2.375-2.479 4.188-3.5 1.833-1.041 4.312-1.562 7.437-1.562 4.042 0 7.605 1.01 10.688 3.031s5.49 4.886 7.219 8.594c1.729 3.708 2.593 8.083 2.593 13.125 0 5.083-.864 9.49-2.593 13.219-1.729 3.708-4.125 6.583-7.188 8.625-3.062 2.02-6.594 3.031-10.594 3.031-3.083 0-5.552-.51-7.406-1.531-1.854-1.042-3.281-2.219-4.281-3.531-1-1.334-1.771-2.438-2.313-3.313h-.625V113a1 1 0 0 1-1 1h-5.375Zm6.25-42c0 3.625.532 6.823 1.594 9.594 1.063 2.75 2.615 4.906 4.656 6.469 2.042 1.541 4.542 2.312 7.5 2.312 3.084 0 5.657-.813 7.719-2.438 2.084-1.645 3.646-3.854 4.688-6.624 1.062-2.792 1.593-5.896 1.593-9.313 0-3.375-.52-6.417-1.562-9.125-1.021-2.73-2.573-4.885-4.656-6.469-2.063-1.604-4.657-2.406-7.782-2.406-3 0-5.52.76-7.562 2.281-2.042 1.5-3.583 3.604-4.625 6.313-1.042 2.687-1.563 5.823-1.563 9.406ZM526.348 97c-4.625 0-8.614-1.02-11.968-3.063-3.334-2.062-5.907-4.937-7.719-8.624-1.792-3.709-2.688-8.021-2.688-12.938s.896-9.25 2.688-13c1.812-3.77 4.333-6.708 7.562-8.813 3.25-2.124 7.042-3.187 11.375-3.187 2.5 0 4.969.417 7.407 1.25 2.437.833 4.656 2.188 6.656 4.063 2 1.854 3.594 4.312 4.781 7.374 1.188 3.063 1.781 6.834 1.781 11.313V73.5a1 1 0 0 1-1 1h-36v-6.375h29.5c0-2.708-.541-5.125-1.625-7.25-1.062-2.125-2.583-3.802-4.562-5.031-1.958-1.23-4.271-1.844-6.938-1.844-2.937 0-5.479.73-7.625 2.188a14.39 14.39 0 0 0-4.906 5.624c-1.146 2.313-1.719 4.792-1.719 7.438v4.25c0 3.625.625 6.698 1.875 9.219 1.271 2.5 3.032 4.406 5.282 5.719 2.25 1.291 4.864 1.937 7.843 1.937 1.938 0 3.688-.27 5.25-.813 1.584-.562 2.948-1.395 4.094-2.5.946-.928 1.714-2.041 2.305-3.339.215-.472.736-.74 1.236-.6l5.251 1.474c.542.152.855.723.655 1.25a15.787 15.787 0 0 1-3.447 5.403c-1.771 1.813-3.958 3.23-6.562 4.25-2.604 1-5.532 1.5-8.782 1.5ZM554.042 96a1 1 0 0 1-1-1V49a1 1 0 0 1 1-1h5.125a1 1 0 0 1 1 1v6.25h.5c.875-2.375 2.459-4.302 4.75-5.781 2.292-1.48 4.875-2.219 7.75-2.219a81.78 81.78 0 0 1 2.972.064.954.954 0 0 1 .903.966v5.314c0 .65-.618 1.159-1.262 1.065l-.457-.065a16.916 16.916 0 0 0-2.781-.219c-2.333 0-4.416.49-6.25 1.469-1.812.958-3.25 2.291-4.312 4-1.042 1.687-1.563 3.614-1.563 5.781V95a1 1 0 0 1-1 1h-5.375ZM605.219 48a1 1 0 0 1 1 1v4.25a1 1 0 0 1-1 1h-22.875a1 1 0 0 1-1-1V49a1 1 0 0 1 1-1h22.875Zm-16.625-10.5a1 1 0 0 1 1-1h5.375a1 1 0 0 1 1 1v44.75c0 2.083.302 3.646.907 4.688.625 1.02 1.416 1.708 2.375 2.062.979.333 2.01.5 3.093.5.813 0 1.48-.042 2-.125l.294-.059a1 1 0 0 1 1.172.76l1.092 4.823c.11.488-.157.982-.639 1.114-.365.1-.786.2-1.262.3-.896.208-2.032.312-3.407.312-2.083 0-4.125-.448-6.125-1.344-1.979-.896-3.625-2.26-4.937-4.094-1.292-1.833-1.938-4.145-1.938-6.937V37.5Z"/></g><defs><clipPath id="a"><path fill="#fff" d="M0 0h636v144H0z"/></clipPath></defs></svg>
